  0
SECTION
  2
BLOCKS
  0
ENDSEC
  0
SECTION
  2
ENTITIES
  0
LINE
  8
0
 10
-104
 20
0
 11
-103.11
 21
-13.5747
  0
LINE
  8
0
 10
-103.11
 20
-13.5747
 11
-100.456
 21
-26.9172
  0
LINE
  8
0
 10
-100.456
 20
-26.9172
 11
-96.0835
 21
-39.7991
  0
LINE
  8
0
 10
-96.0835
 20
-39.7991
 11
-90.0666
 21
-52
  0
LINE
  8
0
 10
-90.0666
 20
-52
 11
-82.5087
 21
-63.3112
  0
LINE
  8
0
 10
-82.5087
 20
-63.3112
 11
-73.5391
 21
-73.5391
  0
LINE
  8
0
 10
-73.5391
 20
-73.5391
 11
-63.3112
 21
-82.5087
  0
LINE
  8
0
 10
-63.3112
 20
-82.5087
 11
-52
 21
-90.0666
  0
LINE
  8
0
 10
-52
 20
-90.0666
 11
-39.7991
 21
-96.0835
  0
LINE
  8
0
 10
-39.7991
 20
-96.0835
 11
-35
 21
-97.7125
  0
LINE
  8
0
 10
-35
 20
-97.7125
 11
-35
 21
-70
  0
LINE
  8
0
 10
-35
 20
-70
 11
35
 21
-70
  0
LINE
  8
0
 10
35
 20
-70
 11
35
 21
-97.7125
  0
LINE
  8
0
 10
35
 20
-97.7125
 11
39.7991
 21
-96.0835
  0
LINE
  8
0
 10
39.7991
 20
-96.0835
 11
52
 21
-90.0666
  0
LINE
  8
0
 10
52
 20
-90.0666
 11
63.3112
 21
-82.5087
  0
LINE
  8
0
 10
63.3112
 20
-82.5087
 11
73.5391
 21
-73.5391
  0
LINE
  8
0
 10
73.5391
 20
-73.5391
 11
82.5087
 21
-63.3112
  0
LINE
  8
0
 10
82.5087
 20
-63.3112
 11
90.0666
 21
-52
  0
LINE
  8
0
 10
90.0666
 20
-52
 11
96.0835
 21
-39.7991
  0
LINE
  8
0
 10
96.0835
 20
-39.7991
 11
100.456
 21
-26.9172
  0
LINE
  8
0
 10
100.456
 20
-26.9172
 11
103.11
 21
-13.5747
  0
LINE
  8
0
 10
103.11
 20
-13.5747
 11
104
 21
0
  0
LINE
  8
0
 10
104
 20
0
 11
103.11
 21
13.5747
  0
LINE
  8
0
 10
103.11
 20
13.5747
 11
100.456
 21
26.9172
  0
LINE
  8
0
 10
100.456
 20
26.9172
 11
96.0835
 21
39.7991
  0
LINE
  8
0
 10
96.0835
 20
39.7991
 11
90.0666
 21
52
  0
LINE
  8
0
 10
90.0666
 20
52
 11
82.5087
 21
63.3112
  0
LINE
  8
0
 10
82.5087
 20
63.3112
 11
73.5391
 21
73.5391
  0
LINE
  8
0
 10
73.5391
 20
73.5391
 11
63.3112
 21
82.5087
  0
LINE
  8
0
 10
63.3112
 20
82.5087
 11
52
 21
90.0666
  0
LINE
  8
0
 10
52
 20
90.0666
 11
39.7991
 21
96.0835
  0
LINE
  8
0
 10
39.7991
 20
96.0835
 11
35
 21
97.7125
  0
LINE
  8
0
 10
35
 20
97.7125
 11
35
 21
70
  0
LINE
  8
0
 10
35
 20
70
 11
-35
 21
70
  0
LINE
  8
0
 10
-35
 20
70
 11
-35
 21
97.7125
  0
LINE
  8
0
 10
-35
 20
97.7125
 11
-39.7991
 21
96.0835
  0
LINE
  8
0
 10
-39.7991
 20
96.0835
 11
-52
 21
90.0666
  0
LINE
  8
0
 10
-52
 20
90.0666
 11
-63.3112
 21
82.5087
  0
LINE
  8
0
 10
-63.3112
 20
82.5087
 11
-73.5391
 21
73.5391
  0
LINE
  8
0
 10
-73.5391
 20
73.5391
 11
-82.5087
 21
63.3112
  0
LINE
  8
0
 10
-82.5087
 20
63.3112
 11
-90.0666
 21
52
  0
LINE
  8
0
 10
-90.0666
 20
52
 11
-96.0835
 21
39.7991
  0
LINE
  8
0
 10
-96.0835
 20
39.7991
 11
-100.456
 21
26.9172
  0
LINE
  8
0
 10
-100.456
 20
26.9172
 11
-103.11
 21
13.5747
  0
LINE
  8
0
 10
-103.11
 20
13.5747
 11
-104
 21
0
  0
LINE
  8
0
 10
-84.552
 20
-36.6222
 11
-84.543
 21
-36.3935
  0
LINE
  8
0
 10
-84.543
 20
-36.3935
 11
-84.5042
 21
-36.1679
  0
LINE
  8
0
 10
-84.5042
 20
-36.1679
 11
-84.4364
 21
-35.9493
  0
LINE
  8
0
 10
-84.4364
 20
-35.9493
 11
-84.3405
 21
-35.7414
  0
LINE
  8
0
 10
-84.3405
 20
-35.7414
 11
-84.2184
 21
-35.5478
  0
LINE
  8
0
 10
-84.2184
 20
-35.5478
 11
-84.072
 21
-35.3718
  0
LINE
  8
0
 10
-84.072
 20
-35.3718
 11
-83.9039
 21
-35.2164
  0
LINE
  8
0
 10
-83.9039
 20
-35.2164
 11
-83.717
 21
-35.0843
  0
LINE
  8
0
 10
-83.717
 20
-35.0843
 11
-83.5144
 21
-34.9777
  0
LINE
  8
0
 10
-83.5144
 20
-34.9777
 11
-83.2996
 21
-34.8985
  0
LINE
  8
0
 10
-83.2996
 20
-34.8985
 11
-83.0764
 21
-34.848
  0
LINE
  8
0
 10
-83.0764
 20
-34.848
 11
-82.8484
 21
-34.827
  0
LINE
  8
0
 10
-82.8484
 20
-34.827
 11
-82.6197
 21
-34.836
  0
LINE
  8
0
 10
-82.6197
 20
-34.836
 11
-82.3941
 21
-34.8748
  0
LINE
  8
0
 10
-82.3941
 20
-34.8748
 11
-82.1754
 21
-34.9427
  0
LINE
  8
0
 10
-82.1754
 20
-34.9427
 11
-81.9676
 21
-35.0385
  0
LINE
  8
0
 10
-81.9676
 20
-35.0385
 11
-81.774
 21
-35.1606
  0
LINE
  8
0
 10
-81.774
 20
-35.1606
 11
-81.598
 21
-35.307
  0
LINE
  8
0
 10
-81.598
 20
-35.307
 11
-81.4426
 21
-35.4751
  0
LINE
  8
0
 10
-81.4426
 20
-35.4751
 11
-81.3105
 21
-35.662
  0
LINE
  8
0
 10
-81.3105
 20
-35.662
 11
-81.2039
 21
-35.8646
  0
LINE
  8
0
 10
-81.2039
 20
-35.8646
 11
-81.1247
 21
-36.0794
  0
LINE
  8
0
 10
-81.1247
 20
-36.0794
 11
-81.0741
 21
-36.3027
  0
LINE
  8
0
 10
-81.0741
 20
-36.3027
 11
-81.0532
 21
-36.5306
  0
LINE
  8
0
 10
-81.0532
 20
-36.5306
 11
-81.0622
 21
-36.7593
  0
LINE
  8
0
 10
-81.0622
 20
-36.7593
 11
-81.1009
 21
-36.985
  0
LINE
  8
0
 10
-81.1009
 20
-36.985
 11
-81.1688
 21
-37.2036
  0
LINE
  8
0
 10
-81.1688
 20
-37.2036
 11
-81.2647
 21
-37.4114
  0
LINE
  8
0
 10
-81.2647
 20
-37.4114
 11
-81.3868
 21
-37.605
  0
LINE
  8
0
 10
-81.3868
 20
-37.605
 11
-81.5332
 21
-37.781
  0
LINE
  8
0
 10
-81.5332
 20
-37.781
 11
-81.7013
 21
-37.9364
  0
LINE
  8
0
 10
-81.7013
 20
-37.9364
 11
-81.8882
 21
-38.0685
  0
LINE
  8
0
 10
-81.8882
 20
-38.0685
 11
-82.0908
 21
-38.1751
  0
LINE
  8
0
 10
-82.0908
 20
-38.1751
 11
-82.3056
 21
-38.2544
  0
LINE
  8
0
 10
-82.3056
 20
-38.2544
 11
-82.5288
 21
-38.3049
  0
LINE
  8
0
 10
-82.5288
 20
-38.3049
 11
-82.7568
 21
-38.3258
  0
LINE
  8
0
 10
-82.7568
 20
-38.3258
 11
-82.9855
 21
-38.3168
  0
LINE
  8
0
 10
-82.9855
 20
-38.3168
 11
-83.2111
 21
-38.2781
  0
LINE
  8
0
 10
-83.2111
 20
-38.2781
 11
-83.4297
 21
-38.2102
  0
LINE
  8
0
 10
-83.4297
 20
-38.2102
 11
-83.6376
 21
-38.1144
  0
LINE
  8
0
 10
-83.6376
 20
-38.1144
 11
-83.8312
 21
-37.9922
  0
LINE
  8
0
 10
-83.8312
 20
-37.9922
 11
-84.0072
 21
-37.8458
  0
LINE
  8
0
 10
-84.0072
 20
-37.8458
 11
-84.1626
 21
-37.6777
  0
LINE
  8
0
 10
-84.1626
 20
-37.6777
 11
-84.2947
 21
-37.4908
  0
LINE
  8
0
 10
-84.2947
 20
-37.4908
 11
-84.4013
 21
-37.2882
  0
LINE
  8
0
 10
-84.4013
 20
-37.2882
 11
-84.4805
 21
-37.0734
  0
LINE
  8
0
 10
-84.4805
 20
-37.0734
 11
-84.531
 21
-36.8502
  0
LINE
  8
0
 10
-84.531
 20
-36.8502
 11
-84.552
 21
-36.6222
  0
LINE
  8
0
 10
-84.552
 20
36.6222
 11
-84.531
 21
36.8502
  0
LINE
  8
0
 10
-84.531
 20
36.8502
 11
-84.4805
 21
37.0734
  0
LINE
  8
0
 10
-84.4805
 20
37.0734
 11
-84.4013
 21
37.2882
  0
LINE
  8
0
 10
-84.4013
 20
37.2882
 11
-84.2947
 21
37.4908
  0
LINE
  8
0
 10
-84.2947
 20
37.4908
 11
-84.1626
 21
37.6777
  0
LINE
  8
0
 10
-84.1626
 20
37.6777
 11
-84.0072
 21
37.8458
  0
LINE
  8
0
 10
-84.0072
 20
37.8458
 11
-83.8312
 21
37.9922
  0
LINE
  8
0
 10
-83.8312
 20
37.9922
 11
-83.6376
 21
38.1144
  0
LINE
  8
0
 10
-83.6376
 20
38.1144
 11
-83.4297
 21
38.2102
  0
LINE
  8
0
 10
-83.4297
 20
38.2102
 11
-83.2111
 21
38.2781
  0
LINE
  8
0
 10
-83.2111
 20
38.2781
 11
-82.9855
 21
38.3168
  0
LINE
  8
0
 10
-82.9855
 20
38.3168
 11
-82.7568
 21
38.3258
  0
LINE
  8
0
 10
-82.7568
 20
38.3258
 11
-82.5288
 21
38.3049
  0
LINE
  8
0
 10
-82.5288
 20
38.3049
 11
-82.3056
 21
38.2544
  0
LINE
  8
0
 10
-82.3056
 20
38.2544
 11
-82.0908
 21
38.1751
  0
LINE
  8
0
 10
-82.0908
 20
38.1751
 11
-81.8882
 21
38.0685
  0
LINE
  8
0
 10
-81.8882
 20
38.0685
 11
-81.7013
 21
37.9364
  0
LINE
  8
0
 10
-81.7013
 20
37.9364
 11
-81.5332
 21
37.781
  0
LINE
  8
0
 10
-81.5332
 20
37.781
 11
-81.3868
 21
37.605
  0
LINE
  8
0
 10
-81.3868
 20
37.605
 11
-81.2647
 21
37.4114
  0
LINE
  8
0
 10
-81.2647
 20
37.4114
 11
-81.1688
 21
37.2036
  0
LINE
  8
0
 10
-81.1688
 20
37.2036
 11
-81.1009
 21
36.985
  0
LINE
  8
0
 10
-81.1009
 20
36.985
 11
-81.0622
 21
36.7593
  0
LINE
  8
0
 10
-81.0622
 20
36.7593
 11
-81.0532
 21
36.5306
  0
LINE
  8
0
 10
-81.0532
 20
36.5306
 11
-81.0741
 21
36.3027
  0
LINE
  8
0
 10
-81.0741
 20
36.3027
 11
-81.1247
 21
36.0794
  0
LINE
  8
0
 10
-81.1247
 20
36.0794
 11
-81.2039
 21
35.8646
  0
LINE
  8
0
 10
-81.2039
 20
35.8646
 11
-81.3105
 21
35.662
  0
LINE
  8
0
 10
-81.3105
 20
35.662
 11
-81.4426
 21
35.4751
  0
LINE
  8
0
 10
-81.4426
 20
35.4751
 11
-81.598
 21
35.307
  0
LINE
  8
0
 10
-81.598
 20
35.307
 11
-81.774
 21
35.1606
  0
LINE
  8
0
 10
-81.774
 20
35.1606
 11
-81.9676
 21
35.0385
  0
LINE
  8
0
 10
-81.9676
 20
35.0385
 11
-82.1754
 21
34.9427
  0
LINE
  8
0
 10
-82.1754
 20
34.9427
 11
-82.3941
 21
34.8748
  0
LINE
  8
0
 10
-82.3941
 20
34.8748
 11
-82.6197
 21
34.836
  0
LINE
  8
0
 10
-82.6197
 20
34.836
 11
-82.8484
 21
34.827
  0
LINE
  8
0
 10
-82.8484
 20
34.827
 11
-83.0764
 21
34.848
  0
LINE
  8
0
 10
-83.0764
 20
34.848
 11
-83.2996
 21
34.8985
  0
LINE
  8
0
 10
-83.2996
 20
34.8985
 11
-83.5144
 21
34.9777
  0
LINE
  8
0
 10
-83.5144
 20
34.9777
 11
-83.717
 21
35.0843
  0
LINE
  8
0
 10
-83.717
 20
35.0843
 11
-83.9039
 21
35.2164
  0
LINE
  8
0
 10
-83.9039
 20
35.2164
 11
-84.072
 21
35.3718
  0
LINE
  8
0
 10
-84.072
 20
35.3718
 11
-84.2184
 21
35.5478
  0
LINE
  8
0
 10
-84.2184
 20
35.5478
 11
-84.3405
 21
35.7414
  0
LINE
  8
0
 10
-84.3405
 20
35.7414
 11
-84.4364
 21
35.9493
  0
LINE
  8
0
 10
-84.4364
 20
35.9493
 11
-84.5042
 21
36.1679
  0
LINE
  8
0
 10
-84.5042
 20
36.1679
 11
-84.543
 21
36.3935
  0
LINE
  8
0
 10
-84.543
 20
36.3935
 11
-84.552
 21
36.6222
  0
LINE
  8
0
 10
-67.75
 20
0
 11
-67.735
 21
0.22842
  0
LINE
  8
0
 10
-67.735
 20
0.22842
 11
-67.6904
 21
0.452933
  0
LINE
  8
0
 10
-67.6904
 20
0.452933
 11
-67.6168
 21
0.669696
  0
LINE
  8
0
 10
-67.6168
 20
0.669696
 11
-67.5155
 21
0.875
  0
LINE
  8
0
 10
-67.5155
 20
0.875
 11
-67.3884
 21
1.06533
  0
LINE
  8
0
 10
-67.3884
 20
1.06533
 11
-67.2374
 21
1.23744
  0
LINE
  8
0
 10
-67.2374
 20
1.23744
 11
-67.0653
 21
1.38837
  0
LINE
  8
0
 10
-67.0653
 20
1.38837
 11
-66.875
 21
1.51554
  0
LINE
  8
0
 10
-66.875
 20
1.51554
 11
-66.6697
 21
1.61679
  0
LINE
  8
0
 10
-66.6697
 20
1.61679
 11
-66.4529
 21
1.69037
  0
LINE
  8
0
 10
-66.4529
 20
1.69037
 11
-66.2284
 21
1.73503
  0
LINE
  8
0
 10
-66.2284
 20
1.73503
 11
-66
 21
1.75
  0
LINE
  8
0
 10
-66
 20
1.75
 11
-65.7716
 21
1.73503
  0
LINE
  8
0
 10
-65.7716
 20
1.73503
 11
-65.5471
 21
1.69037
  0
LINE
  8
0
 10
-65.5471
 20
1.69037
 11
-65.3303
 21
1.61679
  0
LINE
  8
0
 10
-65.3303
 20
1.61679
 11
-65.125
 21
1.51554
  0
LINE
  8
0
 10
-65.125
 20
1.51554
 11
-64.9347
 21
1.38837
  0
LINE
  8
0
 10
-64.9347
 20
1.38837
 11
-64.7626
 21
1.23744
  0
LINE
  8
0
 10
-64.7626
 20
1.23744
 11
-64.6116
 21
1.06533
  0
LINE
  8
0
 10
-64.6116
 20
1.06533
 11
-64.4845
 21
0.875
  0
LINE
  8
0
 10
-64.4845
 20
0.875
 11
-64.3832
 21
0.669696
  0
LINE
  8
0
 10
-64.3832
 20
0.669696
 11
-64.3096
 21
0.452933
  0
LINE
  8
0
 10
-64.3096
 20
0.452933
 11
-64.265
 21
0.22842
  0
LINE
  8
0
 10
-64.265
 20
0.22842
 11
-64.25
 21
0
  0
LINE
  8
0
 10
-64.25
 20
0
 11
-64.265
 21
-0.22842
  0
LINE
  8
0
 10
-64.265
 20
-0.22842
 11
-64.3096
 21
-0.452933
  0
LINE
  8
0
 10
-64.3096
 20
-0.452933
 11
-64.3832
 21
-0.669696
  0
LINE
  8
0
 10
-64.3832
 20
-0.669696
 11
-64.4845
 21
-0.875
  0
LINE
  8
0
 10
-64.4845
 20
-0.875
 11
-64.6116
 21
-1.06533
  0
LINE
  8
0
 10
-64.6116
 20
-1.06533
 11
-64.7626
 21
-1.23744
  0
LINE
  8
0
 10
-64.7626
 20
-1.23744
 11
-64.9347
 21
-1.38837
  0
LINE
  8
0
 10
-64.9347
 20
-1.38837
 11
-65.125
 21
-1.51554
  0
LINE
  8
0
 10
-65.125
 20
-1.51554
 11
-65.3303
 21
-1.61679
  0
LINE
  8
0
 10
-65.3303
 20
-1.61679
 11
-65.5471
 21
-1.69037
  0
LINE
  8
0
 10
-65.5471
 20
-1.69037
 11
-65.7716
 21
-1.73503
  0
LINE
  8
0
 10
-65.7716
 20
-1.73503
 11
-66
 21
-1.75
  0
LINE
  8
0
 10
-66
 20
-1.75
 11
-66.2284
 21
-1.73503
  0
LINE
  8
0
 10
-66.2284
 20
-1.73503
 11
-66.4529
 21
-1.69037
  0
LINE
  8
0
 10
-66.4529
 20
-1.69037
 11
-66.6697
 21
-1.61679
  0
LINE
  8
0
 10
-66.6697
 20
-1.61679
 11
-66.875
 21
-1.51554
  0
LINE
  8
0
 10
-66.875
 20
-1.51554
 11
-67.0653
 21
-1.38837
  0
LINE
  8
0
 10
-67.0653
 20
-1.38837
 11
-67.2374
 21
-1.23744
  0
LINE
  8
0
 10
-67.2374
 20
-1.23744
 11
-67.3884
 21
-1.06533
  0
LINE
  8
0
 10
-67.3884
 20
-1.06533
 11
-67.5155
 21
-0.875
  0
LINE
  8
0
 10
-67.5155
 20
-0.875
 11
-67.6168
 21
-0.669696
  0
LINE
  8
0
 10
-67.6168
 20
-0.669696
 11
-67.6904
 21
-0.452933
  0
LINE
  8
0
 10
-67.6904
 20
-0.452933
 11
-67.735
 21
-0.22842
  0
LINE
  8
0
 10
-67.735
 20
-0.22842
 11
-67.75
 21
0
  0
LINE
  8
0
 10
-58.75
 20
0
 11
-58.735
 21
0.22842
  0
LINE
  8
0
 10
-58.735
 20
0.22842
 11
-58.6904
 21
0.452933
  0
LINE
  8
0
 10
-58.6904
 20
0.452933
 11
-58.6168
 21
0.669696
  0
LINE
  8
0
 10
-58.6168
 20
0.669696
 11
-58.5155
 21
0.875
  0
LINE
  8
0
 10
-58.5155
 20
0.875
 11
-58.3884
 21
1.06533
  0
LINE
  8
0
 10
-58.3884
 20
1.06533
 11
-58.2374
 21
1.23744
  0
LINE
  8
0
 10
-58.2374
 20
1.23744
 11
-58.0653
 21
1.38837
  0
LINE
  8
0
 10
-58.0653
 20
1.38837
 11
-57.875
 21
1.51554
  0
LINE
  8
0
 10
-57.875
 20
1.51554
 11
-57.6697
 21
1.61679
  0
LINE
  8
0
 10
-57.6697
 20
1.61679
 11
-57.4529
 21
1.69037
  0
LINE
  8
0
 10
-57.4529
 20
1.69037
 11
-57.2284
 21
1.73503
  0
LINE
  8
0
 10
-57.2284
 20
1.73503
 11
-57
 21
1.75
  0
LINE
  8
0
 10
-57
 20
1.75
 11
-56.7716
 21
1.73503
  0
LINE
  8
0
 10
-56.7716
 20
1.73503
 11
-56.5471
 21
1.69037
  0
LINE
  8
0
 10
-56.5471
 20
1.69037
 11
-56.3303
 21
1.61679
  0
LINE
  8
0
 10
-56.3303
 20
1.61679
 11
-56.125
 21
1.51554
  0
LINE
  8
0
 10
-56.125
 20
1.51554
 11
-55.9347
 21
1.38837
  0
LINE
  8
0
 10
-55.9347
 20
1.38837
 11
-55.7626
 21
1.23744
  0
LINE
  8
0
 10
-55.7626
 20
1.23744
 11
-55.6116
 21
1.06533
  0
LINE
  8
0
 10
-55.6116
 20
1.06533
 11
-55.4845
 21
0.875
  0
LINE
  8
0
 10
-55.4845
 20
0.875
 11
-55.3832
 21
0.669696
  0
LINE
  8
0
 10
-55.3832
 20
0.669696
 11
-55.3096
 21
0.452933
  0
LINE
  8
0
 10
-55.3096
 20
0.452933
 11
-55.265
 21
0.22842
  0
LINE
  8
0
 10
-55.265
 20
0.22842
 11
-55.25
 21
0
  0
LINE
  8
0
 10
-55.25
 20
0
 11
-55.265
 21
-0.22842
  0
LINE
  8
0
 10
-55.265
 20
-0.22842
 11
-55.3096
 21
-0.452933
  0
LINE
  8
0
 10
-55.3096
 20
-0.452933
 11
-55.3832
 21
-0.669696
  0
LINE
  8
0
 10
-55.3832
 20
-0.669696
 11
-55.4845
 21
-0.875
  0
LINE
  8
0
 10
-55.4845
 20
-0.875
 11
-55.6116
 21
-1.06533
  0
LINE
  8
0
 10
-55.6116
 20
-1.06533
 11
-55.7626
 21
-1.23744
  0
LINE
  8
0
 10
-55.7626
 20
-1.23744
 11
-55.9347
 21
-1.38837
  0
LINE
  8
0
 10
-55.9347
 20
-1.38837
 11
-56.125
 21
-1.51554
  0
LINE
  8
0
 10
-56.125
 20
-1.51554
 11
-56.3303
 21
-1.61679
  0
LINE
  8
0
 10
-56.3303
 20
-1.61679
 11
-56.5471
 21
-1.69037
  0
LINE
  8
0
 10
-56.5471
 20
-1.69037
 11
-56.7716
 21
-1.73503
  0
LINE
  8
0
 10
-56.7716
 20
-1.73503
 11
-57
 21
-1.75
  0
LINE
  8
0
 10
-57
 20
-1.75
 11
-57.2284
 21
-1.73503
  0
LINE
  8
0
 10
-57.2284
 20
-1.73503
 11
-57.4529
 21
-1.69037
  0
LINE
  8
0
 10
-57.4529
 20
-1.69037
 11
-57.6697
 21
-1.61679
  0
LINE
  8
0
 10
-57.6697
 20
-1.61679
 11
-57.875
 21
-1.51554
  0
LINE
  8
0
 10
-57.875
 20
-1.51554
 11
-58.0653
 21
-1.38837
  0
LINE
  8
0
 10
-58.0653
 20
-1.38837
 11
-58.2374
 21
-1.23744
  0
LINE
  8
0
 10
-58.2374
 20
-1.23744
 11
-58.3884
 21
-1.06533
  0
LINE
  8
0
 10
-58.3884
 20
-1.06533
 11
-58.5155
 21
-0.875
  0
LINE
  8
0
 10
-58.5155
 20
-0.875
 11
-58.6168
 21
-0.669696
  0
LINE
  8
0
 10
-58.6168
 20
-0.669696
 11
-58.6904
 21
-0.452933
  0
LINE
  8
0
 10
-58.6904
 20
-0.452933
 11
-58.735
 21
-0.22842
  0
LINE
  8
0
 10
-58.735
 20
-0.22842
 11
-58.75
 21
0
  0
LINE
  8
0
 10
-50.75
 20
-22.25
 11
-50.735
 21
-22.0216
  0
LINE
  8
0
 10
-50.735
 20
-22.0216
 11
-50.6904
 21
-21.7971
  0
LINE
  8
0
 10
-50.6904
 20
-21.7971
 11
-50.6168
 21
-21.5803
  0
LINE
  8
0
 10
-50.6168
 20
-21.5803
 11
-50.5155
 21
-21.375
  0
LINE
  8
0
 10
-50.5155
 20
-21.375
 11
-50.3884
 21
-21.1847
  0
LINE
  8
0
 10
-50.3884
 20
-21.1847
 11
-50.2374
 21
-21.0126
  0
LINE
  8
0
 10
-50.2374
 20
-21.0126
 11
-50.0653
 21
-20.8616
  0
LINE
  8
0
 10
-50.0653
 20
-20.8616
 11
-49.875
 21
-20.7345
  0
LINE
  8
0
 10
-49.875
 20
-20.7345
 11
-49.6697
 21
-20.6332
  0
LINE
  8
0
 10
-49.6697
 20
-20.6332
 11
-49.4529
 21
-20.5596
  0
LINE
  8
0
 10
-49.4529
 20
-20.5596
 11
-49.2284
 21
-20.515
  0
LINE
  8
0
 10
-49.2284
 20
-20.515
 11
-49
 21
-20.5
  0
LINE
  8
0
 10
-49
 20
-20.5
 11
-48.7716
 21
-20.515
  0
LINE
  8
0
 10
-48.7716
 20
-20.515
 11
-48.5471
 21
-20.5596
  0
LINE
  8
0
 10
-48.5471
 20
-20.5596
 11
-48.3303
 21
-20.6332
  0
LINE
  8
0
 10
-48.3303
 20
-20.6332
 11
-48.125
 21
-20.7345
  0
LINE
  8
0
 10
-48.125
 20
-20.7345
 11
-47.9347
 21
-20.8616
  0
LINE
  8
0
 10
-47.9347
 20
-20.8616
 11
-47.7626
 21
-21.0126
  0
LINE
  8
0
 10
-47.7626
 20
-21.0126
 11
-47.6116
 21
-21.1847
  0
LINE
  8
0
 10
-47.6116
 20
-21.1847
 11
-47.4845
 21
-21.375
  0
LINE
  8
0
 10
-47.4845
 20
-21.375
 11
-47.3832
 21
-21.5803
  0
LINE
  8
0
 10
-47.3832
 20
-21.5803
 11
-47.3096
 21
-21.7971
  0
LINE
  8
0
 10
-47.3096
 20
-21.7971
 11
-47.265
 21
-22.0216
  0
LINE
  8
0
 10
-47.265
 20
-22.0216
 11
-47.25
 21
-22.25
  0
LINE
  8
0
 10
-47.25
 20
-22.25
 11
-47.265
 21
-22.4784
  0
LINE
  8
0
 10
-47.265
 20
-22.4784
 11
-47.3096
 21
-22.7029
  0
LINE
  8
0
 10
-47.3096
 20
-22.7029
 11
-47.3832
 21
-22.9197
  0
LINE
  8
0
 10
-47.3832
 20
-22.9197
 11
-47.4845
 21
-23.125
  0
LINE
  8
0
 10
-47.4845
 20
-23.125
 11
-47.6116
 21
-23.3153
  0
LINE
  8
0
 10
-47.6116
 20
-23.3153
 11
-47.7626
 21
-23.4874
  0
LINE
  8
0
 10
-47.7626
 20
-23.4874
 11
-47.9347
 21
-23.6384
  0
LINE
  8
0
 10
-47.9347
 20
-23.6384
 11
-48.125
 21
-23.7655
  0
LINE
  8
0
 10
-48.125
 20
-23.7655
 11
-48.3303
 21
-23.8668
  0
LINE
  8
0
 10
-48.3303
 20
-23.8668
 11
-48.5471
 21
-23.9404
  0
LINE
  8
0
 10
-48.5471
 20
-23.9404
 11
-48.7716
 21
-23.985
  0
LINE
  8
0
 10
-48.7716
 20
-23.985
 11
-49
 21
-24
  0
LINE
  8
0
 10
-49
 20
-24
 11
-49.2284
 21
-23.985
  0
LINE
  8
0
 10
-49.2284
 20
-23.985
 11
-49.4529
 21
-23.9404
  0
LINE
  8
0
 10
-49.4529
 20
-23.9404
 11
-49.6697
 21
-23.8668
  0
LINE
  8
0
 10
-49.6697
 20
-23.8668
 11
-49.875
 21
-23.7655
  0
LINE
  8
0
 10
-49.875
 20
-23.7655
 11
-50.0653
 21
-23.6384
  0
LINE
  8
0
 10
-50.0653
 20
-23.6384
 11
-50.2374
 21
-23.4874
  0
LINE
  8
0
 10
-50.2374
 20
-23.4874
 11
-50.3884
 21
-23.3153
  0
LINE
  8
0
 10
-50.3884
 20
-23.3153
 11
-50.5155
 21
-23.125
  0
LINE
  8
0
 10
-50.5155
 20
-23.125
 11
-50.6168
 21
-22.9197
  0
LINE
  8
0
 10
-50.6168
 20
-22.9197
 11
-50.6904
 21
-22.7029
  0
LINE
  8
0
 10
-50.6904
 20
-22.7029
 11
-50.735
 21
-22.4784
  0
LINE
  8
0
 10
-50.735
 20
-22.4784
 11
-50.75
 21
-22.25
  0
LINE
  8
0
 10
-50.75
 20
26.75
 11
-50.735
 21
26.9784
  0
LINE
  8
0
 10
-50.735
 20
26.9784
 11
-50.6904
 21
27.2029
  0
LINE
  8
0
 10
-50.6904
 20
27.2029
 11
-50.6168
 21
27.4197
  0
LINE
  8
0
 10
-50.6168
 20
27.4197
 11
-50.5155
 21
27.625
  0
LINE
  8
0
 10
-50.5155
 20
27.625
 11
-50.3884
 21
27.8153
  0
LINE
  8
0
 10
-50.3884
 20
27.8153
 11
-50.2374
 21
27.9874
  0
LINE
  8
0
 10
-50.2374
 20
27.9874
 11
-50.0653
 21
28.1384
  0
LINE
  8
0
 10
-50.0653
 20
28.1384
 11
-49.875
 21
28.2655
  0
LINE
  8
0
 10
-49.875
 20
28.2655
 11
-49.6697
 21
28.3668
  0
LINE
  8
0
 10
-49.6697
 20
28.3668
 11
-49.4529
 21
28.4404
  0
LINE
  8
0
 10
-49.4529
 20
28.4404
 11
-49.2284
 21
28.485
  0
LINE
  8
0
 10
-49.2284
 20
28.485
 11
-49
 21
28.5
  0
LINE
  8
0
 10
-49
 20
28.5
 11
-48.7716
 21
28.485
  0
LINE
  8
0
 10
-48.7716
 20
28.485
 11
-48.5471
 21
28.4404
  0
LINE
  8
0
 10
-48.5471
 20
28.4404
 11
-48.3303
 21
28.3668
  0
LINE
  8
0
 10
-48.3303
 20
28.3668
 11
-48.125
 21
28.2655
  0
LINE
  8
0
 10
-48.125
 20
28.2655
 11
-47.9347
 21
28.1384
  0
LINE
  8
0
 10
-47.9347
 20
28.1384
 11
-47.7626
 21
27.9874
  0
LINE
  8
0
 10
-47.7626
 20
27.9874
 11
-47.6116
 21
27.8153
  0
LINE
  8
0
 10
-47.6116
 20
27.8153
 11
-47.4845
 21
27.625
  0
LINE
  8
0
 10
-47.4845
 20
27.625
 11
-47.3832
 21
27.4197
  0
LINE
  8
0
 10
-47.3832
 20
27.4197
 11
-47.3096
 21
27.2029
  0
LINE
  8
0
 10
-47.3096
 20
27.2029
 11
-47.265
 21
26.9784
  0
LINE
  8
0
 10
-47.265
 20
26.9784
 11
-47.25
 21
26.75
  0
LINE
  8
0
 10
-47.25
 20
26.75
 11
-47.265
 21
26.5216
  0
LINE
  8
0
 10
-47.265
 20
26.5216
 11
-47.3096
 21
26.2971
  0
LINE
  8
0
 10
-47.3096
 20
26.2971
 11
-47.3832
 21
26.0803
  0
LINE
  8
0
 10
-47.3832
 20
26.0803
 11
-47.4845
 21
25.875
  0
LINE
  8
0
 10
-47.4845
 20
25.875
 11
-47.6116
 21
25.6847
  0
LINE
  8
0
 10
-47.6116
 20
25.6847
 11
-47.7626
 21
25.5126
  0
LINE
  8
0
 10
-47.7626
 20
25.5126
 11
-47.9347
 21
25.3616
  0
LINE
  8
0
 10
-47.9347
 20
25.3616
 11
-48.125
 21
25.2345
  0
LINE
  8
0
 10
-48.125
 20
25.2345
 11
-48.3303
 21
25.1332
  0
LINE
  8
0
 10
-48.3303
 20
25.1332
 11
-48.5471
 21
25.0596
  0
LINE
  8
0
 10
-48.5471
 20
25.0596
 11
-48.7716
 21
25.015
  0
LINE
  8
0
 10
-48.7716
 20
25.015
 11
-49
 21
25
  0
LINE
  8
0
 10
-49
 20
25
 11
-49.2284
 21
25.015
  0
LINE
  8
0
 10
-49.2284
 20
25.015
 11
-49.4529
 21
25.0596
  0
LINE
  8
0
 10
-49.4529
 20
25.0596
 11
-49.6697
 21
25.1332
  0
LINE
  8
0
 10
-49.6697
 20
25.1332
 11
-49.875
 21
25.2345
  0
LINE
  8
0
 10
-49.875
 20
25.2345
 11
-50.0653
 21
25.3616
  0
LINE
  8
0
 10
-50.0653
 20
25.3616
 11
-50.2374
 21
25.5126
  0
LINE
  8
0
 10
-50.2374
 20
25.5126
 11
-50.3884
 21
25.6847
  0
LINE
  8
0
 10
-50.3884
 20
25.6847
 11
-50.5155
 21
25.875
  0
LINE
  8
0
 10
-50.5155
 20
25.875
 11
-50.6168
 21
26.0803
  0
LINE
  8
0
 10
-50.6168
 20
26.0803
 11
-50.6904
 21
26.2971
  0
LINE
  8
0
 10
-50.6904
 20
26.2971
 11
-50.735
 21
26.5216
  0
LINE
  8
0
 10
-50.735
 20
26.5216
 11
-50.75
 21
26.75
  0
LINE
  8
0
 10
-48.75
 20
-72
 11
-48.735
 21
-71.7716
  0
LINE
  8
0
 10
-48.735
 20
-71.7716
 11
-48.6904
 21
-71.5471
  0
LINE
  8
0
 10
-48.6904
 20
-71.5471
 11
-48.6168
 21
-71.3303
  0
LINE
  8
0
 10
-48.6168
 20
-71.3303
 11
-48.5155
 21
-71.125
  0
LINE
  8
0
 10
-48.5155
 20
-71.125
 11
-48.3884
 21
-70.9347
  0
LINE
  8
0
 10
-48.3884
 20
-70.9347
 11
-48.2374
 21
-70.7626
  0
LINE
  8
0
 10
-48.2374
 20
-70.7626
 11
-48.0653
 21
-70.6116
  0
LINE
  8
0
 10
-48.0653
 20
-70.6116
 11
-47.875
 21
-70.4845
  0
LINE
  8
0
 10
-47.875
 20
-70.4845
 11
-47.6697
 21
-70.3832
  0
LINE
  8
0
 10
-47.6697
 20
-70.3832
 11
-47.4529
 21
-70.3096
  0
LINE
  8
0
 10
-47.4529
 20
-70.3096
 11
-47.2284
 21
-70.265
  0
LINE
  8
0
 10
-47.2284
 20
-70.265
 11
-47
 21
-70.25
  0
LINE
  8
0
 10
-47
 20
-70.25
 11
-46.7716
 21
-70.265
  0
LINE
  8
0
 10
-46.7716
 20
-70.265
 11
-46.5471
 21
-70.3096
  0
LINE
  8
0
 10
-46.5471
 20
-70.3096
 11
-46.3303
 21
-70.3832
  0
LINE
  8
0
 10
-46.3303
 20
-70.3832
 11
-46.125
 21
-70.4845
  0
LINE
  8
0
 10
-46.125
 20
-70.4845
 11
-45.9347
 21
-70.6116
  0
LINE
  8
0
 10
-45.9347
 20
-70.6116
 11
-45.7626
 21
-70.7626
  0
LINE
  8
0
 10
-45.7626
 20
-70.7626
 11
-45.6116
 21
-70.9347
  0
LINE
  8
0
 10
-45.6116
 20
-70.9347
 11
-45.4845
 21
-71.125
  0
LINE
  8
0
 10
-45.4845
 20
-71.125
 11
-45.3832
 21
-71.3303
  0
LINE
  8
0
 10
-45.3832
 20
-71.3303
 11
-45.3096
 21
-71.5471
  0
LINE
  8
0
 10
-45.3096
 20
-71.5471
 11
-45.265
 21
-71.7716
  0
LINE
  8
0
 10
-45.265
 20
-71.7716
 11
-45.25
 21
-72
  0
LINE
  8
0
 10
-45.25
 20
-72
 11
-45.265
 21
-72.2284
  0
LINE
  8
0
 10
-45.265
 20
-72.2284
 11
-45.3096
 21
-72.4529
  0
LINE
  8
0
 10
-45.3096
 20
-72.4529
 11
-45.3832
 21
-72.6697
  0
LINE
  8
0
 10
-45.3832
 20
-72.6697
 11
-45.4845
 21
-72.875
  0
LINE
  8
0
 10
-45.4845
 20
-72.875
 11
-45.6116
 21
-73.0653
  0
LINE
  8
0
 10
-45.6116
 20
-73.0653
 11
-45.7626
 21
-73.2374
  0
LINE
  8
0
 10
-45.7626
 20
-73.2374
 11
-45.9347
 21
-73.3884
  0
LINE
  8
0
 10
-45.9347
 20
-73.3884
 11
-46.125
 21
-73.5155
  0
LINE
  8
0
 10
-46.125
 20
-73.5155
 11
-46.3303
 21
-73.6168
  0
LINE
  8
0
 10
-46.3303
 20
-73.6168
 11
-46.5471
 21
-73.6904
  0
LINE
  8
0
 10
-46.5471
 20
-73.6904
 11
-46.7716
 21
-73.735
  0
LINE
  8
0
 10
-46.7716
 20
-73.735
 11
-47
 21
-73.75
  0
LINE
  8
0
 10
-47
 20
-73.75
 11
-47.2284
 21
-73.735
  0
LINE
  8
0
 10
-47.2284
 20
-73.735
 11
-47.4529
 21
-73.6904
  0
LINE
  8
0
 10
-47.4529
 20
-73.6904
 11
-47.6697
 21
-73.6168
  0
LINE
  8
0
 10
-47.6697
 20
-73.6168
 11
-47.875
 21
-73.5155
  0
LINE
  8
0
 10
-47.875
 20
-73.5155
 11
-48.0653
 21
-73.3884
  0
LINE
  8
0
 10
-48.0653
 20
-73.3884
 11
-48.2374
 21
-73.2374
  0
LINE
  8
0
 10
-48.2374
 20
-73.2374
 11
-48.3884
 21
-73.0653
  0
LINE
  8
0
 10
-48.3884
 20
-73.0653
 11
-48.5155
 21
-72.875
  0
LINE
  8
0
 10
-48.5155
 20
-72.875
 11
-48.6168
 21
-72.6697
  0
LINE
  8
0
 10
-48.6168
 20
-72.6697
 11
-48.6904
 21
-72.4529
  0
LINE
  8
0
 10
-48.6904
 20
-72.4529
 11
-48.735
 21
-72.2284
  0
LINE
  8
0
 10
-48.735
 20
-72.2284
 11
-48.75
 21
-72
  0
LINE
  8
0
 10
-48.75
 20
-52
 11
-48.735
 21
-51.7716
  0
LINE
  8
0
 10
-48.735
 20
-51.7716
 11
-48.6904
 21
-51.5471
  0
LINE
  8
0
 10
-48.6904
 20
-51.5471
 11
-48.6168
 21
-51.3303
  0
LINE
  8
0
 10
-48.6168
 20
-51.3303
 11
-48.5155
 21
-51.125
  0
LINE
  8
0
 10
-48.5155
 20
-51.125
 11
-48.3884
 21
-50.9347
  0
LINE
  8
0
 10
-48.3884
 20
-50.9347
 11
-48.2374
 21
-50.7626
  0
LINE
  8
0
 10
-48.2374
 20
-50.7626
 11
-48.0653
 21
-50.6116
  0
LINE
  8
0
 10
-48.0653
 20
-50.6116
 11
-47.875
 21
-50.4845
  0
LINE
  8
0
 10
-47.875
 20
-50.4845
 11
-47.6697
 21
-50.3832
  0
LINE
  8
0
 10
-47.6697
 20
-50.3832
 11
-47.4529
 21
-50.3096
  0
LINE
  8
0
 10
-47.4529
 20
-50.3096
 11
-47.2284
 21
-50.265
  0
LINE
  8
0
 10
-47.2284
 20
-50.265
 11
-47
 21
-50.25
  0
LINE
  8
0
 10
-47
 20
-50.25
 11
-46.7716
 21
-50.265
  0
LINE
  8
0
 10
-46.7716
 20
-50.265
 11
-46.5471
 21
-50.3096
  0
LINE
  8
0
 10
-46.5471
 20
-50.3096
 11
-46.3303
 21
-50.3832
  0
LINE
  8
0
 10
-46.3303
 20
-50.3832
 11
-46.125
 21
-50.4845
  0
LINE
  8
0
 10
-46.125
 20
-50.4845
 11
-45.9347
 21
-50.6116
  0
LINE
  8
0
 10
-45.9347
 20
-50.6116
 11
-45.7626
 21
-50.7626
  0
LINE
  8
0
 10
-45.7626
 20
-50.7626
 11
-45.6116
 21
-50.9347
  0
LINE
  8
0
 10
-45.6116
 20
-50.9347
 11
-45.4845
 21
-51.125
  0
LINE
  8
0
 10
-45.4845
 20
-51.125
 11
-45.3832
 21
-51.3303
  0
LINE
  8
0
 10
-45.3832
 20
-51.3303
 11
-45.3096
 21
-51.5471
  0
LINE
  8
0
 10
-45.3096
 20
-51.5471
 11
-45.265
 21
-51.7716
  0
LINE
  8
0
 10
-45.265
 20
-51.7716
 11
-45.25
 21
-52
  0
LINE
  8
0
 10
-45.25
 20
-52
 11
-45.265
 21
-52.2284
  0
LINE
  8
0
 10
-45.265
 20
-52.2284
 11
-45.3096
 21
-52.4529
  0
LINE
  8
0
 10
-45.3096
 20
-52.4529
 11
-45.3832
 21
-52.6697
  0
LINE
  8
0
 10
-45.3832
 20
-52.6697
 11
-45.4845
 21
-52.875
  0
LINE
  8
0
 10
-45.4845
 20
-52.875
 11
-45.6116
 21
-53.0653
  0
LINE
  8
0
 10
-45.6116
 20
-53.0653
 11
-45.7626
 21
-53.2374
  0
LINE
  8
0
 10
-45.7626
 20
-53.2374
 11
-45.9347
 21
-53.3884
  0
LINE
  8
0
 10
-45.9347
 20
-53.3884
 11
-46.125
 21
-53.5155
  0
LINE
  8
0
 10
-46.125
 20
-53.5155
 11
-46.3303
 21
-53.6168
  0
LINE
  8
0
 10
-46.3303
 20
-53.6168
 11
-46.5471
 21
-53.6904
  0
LINE
  8
0
 10
-46.5471
 20
-53.6904
 11
-46.7716
 21
-53.735
  0
LINE
  8
0
 10
-46.7716
 20
-53.735
 11
-47
 21
-53.75
  0
LINE
  8
0
 10
-47
 20
-53.75
 11
-47.2284
 21
-53.735
  0
LINE
  8
0
 10
-47.2284
 20
-53.735
 11
-47.4529
 21
-53.6904
  0
LINE
  8
0
 10
-47.4529
 20
-53.6904
 11
-47.6697
 21
-53.6168
  0
LINE
  8
0
 10
-47.6697
 20
-53.6168
 11
-47.875
 21
-53.5155
  0
LINE
  8
0
 10
-47.875
 20
-53.5155
 11
-48.0653
 21
-53.3884
  0
LINE
  8
0
 10
-48.0653
 20
-53.3884
 11
-48.2374
 21
-53.2374
  0
LINE
  8
0
 10
-48.2374
 20
-53.2374
 11
-48.3884
 21
-53.0653
  0
LINE
  8
0
 10
-48.3884
 20
-53.0653
 11
-48.5155
 21
-52.875
  0
LINE
  8
0
 10
-48.5155
 20
-52.875
 11
-48.6168
 21
-52.6697
  0
LINE
  8
0
 10
-48.6168
 20
-52.6697
 11
-48.6904
 21
-52.4529
  0
LINE
  8
0
 10
-48.6904
 20
-52.4529
 11
-48.735
 21
-52.2284
  0
LINE
  8
0
 10
-48.735
 20
-52.2284
 11
-48.75
 21
-52
  0
LINE
  8
0
 10
-48.75
 20
52
 11
-48.735
 21
52.2284
  0
LINE
  8
0
 10
-48.735
 20
52.2284
 11
-48.6904
 21
52.4529
  0
LINE
  8
0
 10
-48.6904
 20
52.4529
 11
-48.6168
 21
52.6697
  0
LINE
  8
0
 10
-48.6168
 20
52.6697
 11
-48.5155
 21
52.875
  0
LINE
  8
0
 10
-48.5155
 20
52.875
 11
-48.3884
 21
53.0653
  0
LINE
  8
0
 10
-48.3884
 20
53.0653
 11
-48.2374
 21
53.2374
  0
LINE
  8
0
 10
-48.2374
 20
53.2374
 11
-48.0653
 21
53.3884
  0
LINE
  8
0
 10
-48.0653
 20
53.3884
 11
-47.875
 21
53.5155
  0
LINE
  8
0
 10
-47.875
 20
53.5155
 11
-47.6697
 21
53.6168
  0
LINE
  8
0
 10
-47.6697
 20
53.6168
 11
-47.4529
 21
53.6904
  0
LINE
  8
0
 10
-47.4529
 20
53.6904
 11
-47.2284
 21
53.735
  0
LINE
  8
0
 10
-47.2284
 20
53.735
 11
-47
 21
53.75
  0
LINE
  8
0
 10
-47
 20
53.75
 11
-46.7716
 21
53.735
  0
LINE
  8
0
 10
-46.7716
 20
53.735
 11
-46.5471
 21
53.6904
  0
LINE
  8
0
 10
-46.5471
 20
53.6904
 11
-46.3303
 21
53.6168
  0
LINE
  8
0
 10
-46.3303
 20
53.6168
 11
-46.125
 21
53.5155
  0
LINE
  8
0
 10
-46.125
 20
53.5155
 11
-45.9347
 21
53.3884
  0
LINE
  8
0
 10
-45.9347
 20
53.3884
 11
-45.7626
 21
53.2374
  0
LINE
  8
0
 10
-45.7626
 20
53.2374
 11
-45.6116
 21
53.0653
  0
LINE
  8
0
 10
-45.6116
 20
53.0653
 11
-45.4845
 21
52.875
  0
LINE
  8
0
 10
-45.4845
 20
52.875
 11
-45.3832
 21
52.6697
  0
LINE
  8
0
 10
-45.3832
 20
52.6697
 11
-45.3096
 21
52.4529
  0
LINE
  8
0
 10
-45.3096
 20
52.4529
 11
-45.265
 21
52.2284
  0
LINE
  8
0
 10
-45.265
 20
52.2284
 11
-45.25
 21
52
  0
LINE
  8
0
 10
-45.25
 20
52
 11
-45.265
 21
51.7716
  0
LINE
  8
0
 10
-45.265
 20
51.7716
 11
-45.3096
 21
51.5471
  0
LINE
  8
0
 10
-45.3096
 20
51.5471
 11
-45.3832
 21
51.3303
  0
LINE
  8
0
 10
-45.3832
 20
51.3303
 11
-45.4845
 21
51.125
  0
LINE
  8
0
 10
-45.4845
 20
51.125
 11
-45.6116
 21
50.9347
  0
LINE
  8
0
 10
-45.6116
 20
50.9347
 11
-45.7626
 21
50.7626
  0
LINE
  8
0
 10
-45.7626
 20
50.7626
 11
-45.9347
 21
50.6116
  0
LINE
  8
0
 10
-45.9347
 20
50.6116
 11
-46.125
 21
50.4845
  0
LINE
  8
0
 10
-46.125
 20
50.4845
 11
-46.3303
 21
50.3832
  0
LINE
  8
0
 10
-46.3303
 20
50.3832
 11
-46.5471
 21
50.3096
  0
LINE
  8
0
 10
-46.5471
 20
50.3096
 11
-46.7716
 21
50.265
  0
LINE
  8
0
 10
-46.7716
 20
50.265
 11
-47
 21
50.25
  0
LINE
  8
0
 10
-47
 20
50.25
 11
-47.2284
 21
50.265
  0
LINE
  8
0
 10
-47.2284
 20
50.265
 11
-47.4529
 21
50.3096
  0
LINE
  8
0
 10
-47.4529
 20
50.3096
 11
-47.6697
 21
50.3832
  0
LINE
  8
0
 10
-47.6697
 20
50.3832
 11
-47.875
 21
50.4845
  0
LINE
  8
0
 10
-47.875
 20
50.4845
 11
-48.0653
 21
50.6116
  0
LINE
  8
0
 10
-48.0653
 20
50.6116
 11
-48.2374
 21
50.7626
  0
LINE
  8
0
 10
-48.2374
 20
50.7626
 11
-48.3884
 21
50.9347
  0
LINE
  8
0
 10
-48.3884
 20
50.9347
 11
-48.5155
 21
51.125
  0
LINE
  8
0
 10
-48.5155
 20
51.125
 11
-48.6168
 21
51.3303
  0
LINE
  8
0
 10
-48.6168
 20
51.3303
 11
-48.6904
 21
51.5471
  0
LINE
  8
0
 10
-48.6904
 20
51.5471
 11
-48.735
 21
51.7716
  0
LINE
  8
0
 10
-48.735
 20
51.7716
 11
-48.75
 21
52
  0
LINE
  8
0
 10
-48.75
 20
72
 11
-48.735
 21
72.2284
  0
LINE
  8
0
 10
-48.735
 20
72.2284
 11
-48.6904
 21
72.4529
  0
LINE
  8
0
 10
-48.6904
 20
72.4529
 11
-48.6168
 21
72.6697
  0
LINE
  8
0
 10
-48.6168
 20
72.6697
 11
-48.5155
 21
72.875
  0
LINE
  8
0
 10
-48.5155
 20
72.875
 11
-48.3884
 21
73.0653
  0
LINE
  8
0
 10
-48.3884
 20
73.0653
 11
-48.2374
 21
73.2374
  0
LINE
  8
0
 10
-48.2374
 20
73.2374
 11
-48.0653
 21
73.3884
  0
LINE
  8
0
 10
-48.0653
 20
73.3884
 11
-47.875
 21
73.5155
  0
LINE
  8
0
 10
-47.875
 20
73.5155
 11
-47.6697
 21
73.6168
  0
LINE
  8
0
 10
-47.6697
 20
73.6168
 11
-47.4529
 21
73.6904
  0
LINE
  8
0
 10
-47.4529
 20
73.6904
 11
-47.2284
 21
73.735
  0
LINE
  8
0
 10
-47.2284
 20
73.735
 11
-47
 21
73.75
  0
LINE
  8
0
 10
-47
 20
73.75
 11
-46.7716
 21
73.735
  0
LINE
  8
0
 10
-46.7716
 20
73.735
 11
-46.5471
 21
73.6904
  0
LINE
  8
0
 10
-46.5471
 20
73.6904
 11
-46.3303
 21
73.6168
  0
LINE
  8
0
 10
-46.3303
 20
73.6168
 11
-46.125
 21
73.5155
  0
LINE
  8
0
 10
-46.125
 20
73.5155
 11
-45.9347
 21
73.3884
  0
LINE
  8
0
 10
-45.9347
 20
73.3884
 11
-45.7626
 21
73.2374
  0
LINE
  8
0
 10
-45.7626
 20
73.2374
 11
-45.6116
 21
73.0653
  0
LINE
  8
0
 10
-45.6116
 20
73.0653
 11
-45.4845
 21
72.875
  0
LINE
  8
0
 10
-45.4845
 20
72.875
 11
-45.3832
 21
72.6697
  0
LINE
  8
0
 10
-45.3832
 20
72.6697
 11
-45.3096
 21
72.4529
  0
LINE
  8
0
 10
-45.3096
 20
72.4529
 11
-45.265
 21
72.2284
  0
LINE
  8
0
 10
-45.265
 20
72.2284
 11
-45.25
 21
72
  0
LINE
  8
0
 10
-45.25
 20
72
 11
-45.265
 21
71.7716
  0
LINE
  8
0
 10
-45.265
 20
71.7716
 11
-45.3096
 21
71.5471
  0
LINE
  8
0
 10
-45.3096
 20
71.5471
 11
-45.3832
 21
71.3303
  0
LINE
  8
0
 10
-45.3832
 20
71.3303
 11
-45.4845
 21
71.125
  0
LINE
  8
0
 10
-45.4845
 20
71.125
 11
-45.6116
 21
70.9347
  0
LINE
  8
0
 10
-45.6116
 20
70.9347
 11
-45.7626
 21
70.7626
  0
LINE
  8
0
 10
-45.7626
 20
70.7626
 11
-45.9347
 21
70.6116
  0
LINE
  8
0
 10
-45.9347
 20
70.6116
 11
-46.125
 21
70.4845
  0
LINE
  8
0
 10
-46.125
 20
70.4845
 11
-46.3303
 21
70.3832
  0
LINE
  8
0
 10
-46.3303
 20
70.3832
 11
-46.5471
 21
70.3096
  0
LINE
  8
0
 10
-46.5471
 20
70.3096
 11
-46.7716
 21
70.265
  0
LINE
  8
0
 10
-46.7716
 20
70.265
 11
-47
 21
70.25
  0
LINE
  8
0
 10
-47
 20
70.25
 11
-47.2284
 21
70.265
  0
LINE
  8
0
 10
-47.2284
 20
70.265
 11
-47.4529
 21
70.3096
  0
LINE
  8
0
 10
-47.4529
 20
70.3096
 11
-47.6697
 21
70.3832
  0
LINE
  8
0
 10
-47.6697
 20
70.3832
 11
-47.875
 21
70.4845
  0
LINE
  8
0
 10
-47.875
 20
70.4845
 11
-48.0653
 21
70.6116
  0
LINE
  8
0
 10
-48.0653
 20
70.6116
 11
-48.2374
 21
70.7626
  0
LINE
  8
0
 10
-48.2374
 20
70.7626
 11
-48.3884
 21
70.9347
  0
LINE
  8
0
 10
-48.3884
 20
70.9347
 11
-48.5155
 21
71.125
  0
LINE
  8
0
 10
-48.5155
 20
71.125
 11
-48.6168
 21
71.3303
  0
LINE
  8
0
 10
-48.6168
 20
71.3303
 11
-48.6904
 21
71.5471
  0
LINE
  8
0
 10
-48.6904
 20
71.5471
 11
-48.735
 21
71.7716
  0
LINE
  8
0
 10
-48.735
 20
71.7716
 11
-48.75
 21
72
  0
LINE
  8
0
 10
-21.1
 20
-65
 11
-21.085
 21
-64.7716
  0
LINE
  8
0
 10
-21.085
 20
-64.7716
 11
-21.0404
 21
-64.5471
  0
LINE
  8
0
 10
-21.0404
 20
-64.5471
 11
-20.9668
 21
-64.3303
  0
LINE
  8
0
 10
-20.9668
 20
-64.3303
 11
-20.8655
 21
-64.125
  0
LINE
  8
0
 10
-20.8655
 20
-64.125
 11
-20.7384
 21
-63.9347
  0
LINE
  8
0
 10
-20.7384
 20
-63.9347
 11
-20.5874
 21
-63.7626
  0
LINE
  8
0
 10
-20.5874
 20
-63.7626
 11
-20.4153
 21
-63.6116
  0
LINE
  8
0
 10
-20.4153
 20
-63.6116
 11
-20.225
 21
-63.4845
  0
LINE
  8
0
 10
-20.225
 20
-63.4845
 11
-20.0197
 21
-63.3832
  0
LINE
  8
0
 10
-20.0197
 20
-63.3832
 11
-19.8029
 21
-63.3096
  0
LINE
  8
0
 10
-19.8029
 20
-63.3096
 11
-19.5784
 21
-63.265
  0
LINE
  8
0
 10
-19.5784
 20
-63.265
 11
-19.35
 21
-63.25
  0
LINE
  8
0
 10
-19.35
 20
-63.25
 11
-19.1216
 21
-63.265
  0
LINE
  8
0
 10
-19.1216
 20
-63.265
 11
-18.8971
 21
-63.3096
  0
LINE
  8
0
 10
-18.8971
 20
-63.3096
 11
-18.6803
 21
-63.3832
  0
LINE
  8
0
 10
-18.6803
 20
-63.3832
 11
-18.475
 21
-63.4845
  0
LINE
  8
0
 10
-18.475
 20
-63.4845
 11
-18.2847
 21
-63.6116
  0
LINE
  8
0
 10
-18.2847
 20
-63.6116
 11
-18.1126
 21
-63.7626
  0
LINE
  8
0
 10
-18.1126
 20
-63.7626
 11
-17.9616
 21
-63.9347
  0
LINE
  8
0
 10
-17.9616
 20
-63.9347
 11
-17.8345
 21
-64.125
  0
LINE
  8
0
 10
-17.8345
 20
-64.125
 11
-17.7332
 21
-64.3303
  0
LINE
  8
0
 10
-17.7332
 20
-64.3303
 11
-17.6596
 21
-64.5471
  0
LINE
  8
0
 10
-17.6596
 20
-64.5471
 11
-17.615
 21
-64.7716
  0
LINE
  8
0
 10
-17.615
 20
-64.7716
 11
-17.6
 21
-65
  0
LINE
  8
0
 10
-17.6
 20
-65
 11
-17.615
 21
-65.2284
  0
LINE
  8
0
 10
-17.615
 20
-65.2284
 11
-17.6596
 21
-65.4529
  0
LINE
  8
0
 10
-17.6596
 20
-65.4529
 11
-17.7332
 21
-65.6697
  0
LINE
  8
0
 10
-17.7332
 20
-65.6697
 11
-17.8345
 21
-65.875
  0
LINE
  8
0
 10
-17.8345
 20
-65.875
 11
-17.9616
 21
-66.0653
  0
LINE
  8
0
 10
-17.9616
 20
-66.0653
 11
-18.1126
 21
-66.2374
  0
LINE
  8
0
 10
-18.1126
 20
-66.2374
 11
-18.2847
 21
-66.3884
  0
LINE
  8
0
 10
-18.2847
 20
-66.3884
 11
-18.475
 21
-66.5155
  0
LINE
  8
0
 10
-18.475
 20
-66.5155
 11
-18.6803
 21
-66.6168
  0
LINE
  8
0
 10
-18.6803
 20
-66.6168
 11
-18.8971
 21
-66.6904
  0
LINE
  8
0
 10
-18.8971
 20
-66.6904
 11
-19.1216
 21
-66.735
  0
LINE
  8
0
 10
-19.1216
 20
-66.735
 11
-19.35
 21
-66.75
  0
LINE
  8
0
 10
-19.35
 20
-66.75
 11
-19.5784
 21
-66.735
  0
LINE
  8
0
 10
-19.5784
 20
-66.735
 11
-19.8029
 21
-66.6904
  0
LINE
  8
0
 10
-19.8029
 20
-66.6904
 11
-20.0197
 21
-66.6168
  0
LINE
  8
0
 10
-20.0197
 20
-66.6168
 11
-20.225
 21
-66.5155
  0
LINE
  8
0
 10
-20.225
 20
-66.5155
 11
-20.4153
 21
-66.3884
  0
LINE
  8
0
 10
-20.4153
 20
-66.3884
 11
-20.5874
 21
-66.2374
  0
LINE
  8
0
 10
-20.5874
 20
-66.2374
 11
-20.7384
 21
-66.0653
  0
LINE
  8
0
 10
-20.7384
 20
-66.0653
 11
-20.8655
 21
-65.875
  0
LINE
  8
0
 10
-20.8655
 20
-65.875
 11
-20.9668
 21
-65.6697
  0
LINE
  8
0
 10
-20.9668
 20
-65.6697
 11
-21.0404
 21
-65.4529
  0
LINE
  8
0
 10
-21.0404
 20
-65.4529
 11
-21.085
 21
-65.2284
  0
LINE
  8
0
 10
-21.085
 20
-65.2284
 11
-21.1
 21
-65
  0
LINE
  8
0
 10
-21.1
 20
-45
 11
-21.085
 21
-44.7716
  0
LINE
  8
0
 10
-21.085
 20
-44.7716
 11
-21.0404
 21
-44.5471
  0
LINE
  8
0
 10
-21.0404
 20
-44.5471
 11
-20.9668
 21
-44.3303
  0
LINE
  8
0
 10
-20.9668
 20
-44.3303
 11
-20.8655
 21
-44.125
  0
LINE
  8
0
 10
-20.8655
 20
-44.125
 11
-20.7384
 21
-43.9347
  0
LINE
  8
0
 10
-20.7384
 20
-43.9347
 11
-20.5874
 21
-43.7626
  0
LINE
  8
0
 10
-20.5874
 20
-43.7626
 11
-20.4153
 21
-43.6116
  0
LINE
  8
0
 10
-20.4153
 20
-43.6116
 11
-20.225
 21
-43.4845
  0
LINE
  8
0
 10
-20.225
 20
-43.4845
 11
-20.0197
 21
-43.3832
  0
LINE
  8
0
 10
-20.0197
 20
-43.3832
 11
-19.8029
 21
-43.3096
  0
LINE
  8
0
 10
-19.8029
 20
-43.3096
 11
-19.5784
 21
-43.265
  0
LINE
  8
0
 10
-19.5784
 20
-43.265
 11
-19.35
 21
-43.25
  0
LINE
  8
0
 10
-19.35
 20
-43.25
 11
-19.1216
 21
-43.265
  0
LINE
  8
0
 10
-19.1216
 20
-43.265
 11
-18.8971
 21
-43.3096
  0
LINE
  8
0
 10
-18.8971
 20
-43.3096
 11
-18.6803
 21
-43.3832
  0
LINE
  8
0
 10
-18.6803
 20
-43.3832
 11
-18.475
 21
-43.4845
  0
LINE
  8
0
 10
-18.475
 20
-43.4845
 11
-18.2847
 21
-43.6116
  0
LINE
  8
0
 10
-18.2847
 20
-43.6116
 11
-18.1126
 21
-43.7626
  0
LINE
  8
0
 10
-18.1126
 20
-43.7626
 11
-17.9616
 21
-43.9347
  0
LINE
  8
0
 10
-17.9616
 20
-43.9347
 11
-17.8345
 21
-44.125
  0
LINE
  8
0
 10
-17.8345
 20
-44.125
 11
-17.7332
 21
-44.3303
  0
LINE
  8
0
 10
-17.7332
 20
-44.3303
 11
-17.6596
 21
-44.5471
  0
LINE
  8
0
 10
-17.6596
 20
-44.5471
 11
-17.615
 21
-44.7716
  0
LINE
  8
0
 10
-17.615
 20
-44.7716
 11
-17.6
 21
-45
  0
LINE
  8
0
 10
-17.6
 20
-45
 11
-17.615
 21
-45.2284
  0
LINE
  8
0
 10
-17.615
 20
-45.2284
 11
-17.6596
 21
-45.4529
  0
LINE
  8
0
 10
-17.6596
 20
-45.4529
 11
-17.7332
 21
-45.6697
  0
LINE
  8
0
 10
-17.7332
 20
-45.6697
 11
-17.8345
 21
-45.875
  0
LINE
  8
0
 10
-17.8345
 20
-45.875
 11
-17.9616
 21
-46.0653
  0
LINE
  8
0
 10
-17.9616
 20
-46.0653
 11
-18.1126
 21
-46.2374
  0
LINE
  8
0
 10
-18.1126
 20
-46.2374
 11
-18.2847
 21
-46.3884
  0
LINE
  8
0
 10
-18.2847
 20
-46.3884
 11
-18.475
 21
-46.5155
  0
LINE
  8
0
 10
-18.475
 20
-46.5155
 11
-18.6803
 21
-46.6168
  0
LINE
  8
0
 10
-18.6803
 20
-46.6168
 11
-18.8971
 21
-46.6904
  0
LINE
  8
0
 10
-18.8971
 20
-46.6904
 11
-19.1216
 21
-46.735
  0
LINE
  8
0
 10
-19.1216
 20
-46.735
 11
-19.35
 21
-46.75
  0
LINE
  8
0
 10
-19.35
 20
-46.75
 11
-19.5784
 21
-46.735
  0
LINE
  8
0
 10
-19.5784
 20
-46.735
 11
-19.8029
 21
-46.6904
  0
LINE
  8
0
 10
-19.8029
 20
-46.6904
 11
-20.0197
 21
-46.6168
  0
LINE
  8
0
 10
-20.0197
 20
-46.6168
 11
-20.225
 21
-46.5155
  0
LINE
  8
0
 10
-20.225
 20
-46.5155
 11
-20.4153
 21
-46.3884
  0
LINE
  8
0
 10
-20.4153
 20
-46.3884
 11
-20.5874
 21
-46.2374
  0
LINE
  8
0
 10
-20.5874
 20
-46.2374
 11
-20.7384
 21
-46.0653
  0
LINE
  8
0
 10
-20.7384
 20
-46.0653
 11
-20.8655
 21
-45.875
  0
LINE
  8
0
 10
-20.8655
 20
-45.875
 11
-20.9668
 21
-45.6697
  0
LINE
  8
0
 10
-20.9668
 20
-45.6697
 11
-21.0404
 21
-45.4529
  0
LINE
  8
0
 10
-21.0404
 20
-45.4529
 11
-21.085
 21
-45.2284
  0
LINE
  8
0
 10
-21.085
 20
-45.2284
 11
-21.1
 21
-45
  0
LINE
  8
0
 10
-21.1
 20
45
 11
-21.085
 21
45.2284
  0
LINE
  8
0
 10
-21.085
 20
45.2284
 11
-21.0404
 21
45.4529
  0
LINE
  8
0
 10
-21.0404
 20
45.4529
 11
-20.9668
 21
45.6697
  0
LINE
  8
0
 10
-20.9668
 20
45.6697
 11
-20.8655
 21
45.875
  0
LINE
  8
0
 10
-20.8655
 20
45.875
 11
-20.7384
 21
46.0653
  0
LINE
  8
0
 10
-20.7384
 20
46.0653
 11
-20.5874
 21
46.2374
  0
LINE
  8
0
 10
-20.5874
 20
46.2374
 11
-20.4153
 21
46.3884
  0
LINE
  8
0
 10
-20.4153
 20
46.3884
 11
-20.225
 21
46.5155
  0
LINE
  8
0
 10
-20.225
 20
46.5155
 11
-20.0197
 21
46.6168
  0
LINE
  8
0
 10
-20.0197
 20
46.6168
 11
-19.8029
 21
46.6904
  0
LINE
  8
0
 10
-19.8029
 20
46.6904
 11
-19.5784
 21
46.735
  0
LINE
  8
0
 10
-19.5784
 20
46.735
 11
-19.35
 21
46.75
  0
LINE
  8
0
 10
-19.35
 20
46.75
 11
-19.1216
 21
46.735
  0
LINE
  8
0
 10
-19.1216
 20
46.735
 11
-18.8971
 21
46.6904
  0
LINE
  8
0
 10
-18.8971
 20
46.6904
 11
-18.6803
 21
46.6168
  0
LINE
  8
0
 10
-18.6803
 20
46.6168
 11
-18.475
 21
46.5155
  0
LINE
  8
0
 10
-18.475
 20
46.5155
 11
-18.2847
 21
46.3884
  0
LINE
  8
0
 10
-18.2847
 20
46.3884
 11
-18.1126
 21
46.2374
  0
LINE
  8
0
 10
-18.1126
 20
46.2374
 11
-17.9616
 21
46.0653
  0
LINE
  8
0
 10
-17.9616
 20
46.0653
 11
-17.8345
 21
45.875
  0
LINE
  8
0
 10
-17.8345
 20
45.875
 11
-17.7332
 21
45.6697
  0
LINE
  8
0
 10
-17.7332
 20
45.6697
 11
-17.6596
 21
45.4529
  0
LINE
  8
0
 10
-17.6596
 20
45.4529
 11
-17.615
 21
45.2284
  0
LINE
  8
0
 10
-17.615
 20
45.2284
 11
-17.6
 21
45
  0
LINE
  8
0
 10
-17.6
 20
45
 11
-17.615
 21
44.7716
  0
LINE
  8
0
 10
-17.615
 20
44.7716
 11
-17.6596
 21
44.5471
  0
LINE
  8
0
 10
-17.6596
 20
44.5471
 11
-17.7332
 21
44.3303
  0
LINE
  8
0
 10
-17.7332
 20
44.3303
 11
-17.8345
 21
44.125
  0
LINE
  8
0
 10
-17.8345
 20
44.125
 11
-17.9616
 21
43.9347
  0
LINE
  8
0
 10
-17.9616
 20
43.9347
 11
-18.1126
 21
43.7626
  0
LINE
  8
0
 10
-18.1126
 20
43.7626
 11
-18.2847
 21
43.6116
  0
LINE
  8
0
 10
-18.2847
 20
43.6116
 11
-18.475
 21
43.4845
  0
LINE
  8
0
 10
-18.475
 20
43.4845
 11
-18.6803
 21
43.3832
  0
LINE
  8
0
 10
-18.6803
 20
43.3832
 11
-18.8971
 21
43.3096
  0
LINE
  8
0
 10
-18.8971
 20
43.3096
 11
-19.1216
 21
43.265
  0
LINE
  8
0
 10
-19.1216
 20
43.265
 11
-19.35
 21
43.25
  0
LINE
  8
0
 10
-19.35
 20
43.25
 11
-19.5784
 21
43.265
  0
LINE
  8
0
 10
-19.5784
 20
43.265
 11
-19.8029
 21
43.3096
  0
LINE
  8
0
 10
-19.8029
 20
43.3096
 11
-20.0197
 21
43.3832
  0
LINE
  8
0
 10
-20.0197
 20
43.3832
 11
-20.225
 21
43.4845
  0
LINE
  8
0
 10
-20.225
 20
43.4845
 11
-20.4153
 21
43.6116
  0
LINE
  8
0
 10
-20.4153
 20
43.6116
 11
-20.5874
 21
43.7626
  0
LINE
  8
0
 10
-20.5874
 20
43.7626
 11
-20.7384
 21
43.9347
  0
LINE
  8
0
 10
-20.7384
 20
43.9347
 11
-20.8655
 21
44.125
  0
LINE
  8
0
 10
-20.8655
 20
44.125
 11
-20.9668
 21
44.3303
  0
LINE
  8
0
 10
-20.9668
 20
44.3303
 11
-21.0404
 21
44.5471
  0
LINE
  8
0
 10
-21.0404
 20
44.5471
 11
-21.085
 21
44.7716
  0
LINE
  8
0
 10
-21.085
 20
44.7716
 11
-21.1
 21
45
  0
LINE
  8
0
 10
-21.1
 20
65
 11
-21.085
 21
65.2284
  0
LINE
  8
0
 10
-21.085
 20
65.2284
 11
-21.0404
 21
65.4529
  0
LINE
  8
0
 10
-21.0404
 20
65.4529
 11
-20.9668
 21
65.6697
  0
LINE
  8
0
 10
-20.9668
 20
65.6697
 11
-20.8655
 21
65.875
  0
LINE
  8
0
 10
-20.8655
 20
65.875
 11
-20.7384
 21
66.0653
  0
LINE
  8
0
 10
-20.7384
 20
66.0653
 11
-20.5874
 21
66.2374
  0
LINE
  8
0
 10
-20.5874
 20
66.2374
 11
-20.4153
 21
66.3884
  0
LINE
  8
0
 10
-20.4153
 20
66.3884
 11
-20.225
 21
66.5155
  0
LINE
  8
0
 10
-20.225
 20
66.5155
 11
-20.0197
 21
66.6168
  0
LINE
  8
0
 10
-20.0197
 20
66.6168
 11
-19.8029
 21
66.6904
  0
LINE
  8
0
 10
-19.8029
 20
66.6904
 11
-19.5784
 21
66.735
  0
LINE
  8
0
 10
-19.5784
 20
66.735
 11
-19.35
 21
66.75
  0
LINE
  8
0
 10
-19.35
 20
66.75
 11
-19.1216
 21
66.735
  0
LINE
  8
0
 10
-19.1216
 20
66.735
 11
-18.8971
 21
66.6904
  0
LINE
  8
0
 10
-18.8971
 20
66.6904
 11
-18.6803
 21
66.6168
  0
LINE
  8
0
 10
-18.6803
 20
66.6168
 11
-18.475
 21
66.5155
  0
LINE
  8
0
 10
-18.475
 20
66.5155
 11
-18.2847
 21
66.3884
  0
LINE
  8
0
 10
-18.2847
 20
66.3884
 11
-18.1126
 21
66.2374
  0
LINE
  8
0
 10
-18.1126
 20
66.2374
 11
-17.9616
 21
66.0653
  0
LINE
  8
0
 10
-17.9616
 20
66.0653
 11
-17.8345
 21
65.875
  0
LINE
  8
0
 10
-17.8345
 20
65.875
 11
-17.7332
 21
65.6697
  0
LINE
  8
0
 10
-17.7332
 20
65.6697
 11
-17.6596
 21
65.4529
  0
LINE
  8
0
 10
-17.6596
 20
65.4529
 11
-17.615
 21
65.2284
  0
LINE
  8
0
 10
-17.615
 20
65.2284
 11
-17.6
 21
65
  0
LINE
  8
0
 10
-17.6
 20
65
 11
-17.615
 21
64.7716
  0
LINE
  8
0
 10
-17.615
 20
64.7716
 11
-17.6596
 21
64.5471
  0
LINE
  8
0
 10
-17.6596
 20
64.5471
 11
-17.7332
 21
64.3303
  0
LINE
  8
0
 10
-17.7332
 20
64.3303
 11
-17.8345
 21
64.125
  0
LINE
  8
0
 10
-17.8345
 20
64.125
 11
-17.9616
 21
63.9347
  0
LINE
  8
0
 10
-17.9616
 20
63.9347
 11
-18.1126
 21
63.7626
  0
LINE
  8
0
 10
-18.1126
 20
63.7626
 11
-18.2847
 21
63.6116
  0
LINE
  8
0
 10
-18.2847
 20
63.6116
 11
-18.475
 21
63.4845
  0
LINE
  8
0
 10
-18.475
 20
63.4845
 11
-18.6803
 21
63.3832
  0
LINE
  8
0
 10
-18.6803
 20
63.3832
 11
-18.8971
 21
63.3096
  0
LINE
  8
0
 10
-18.8971
 20
63.3096
 11
-19.1216
 21
63.265
  0
LINE
  8
0
 10
-19.1216
 20
63.265
 11
-19.35
 21
63.25
  0
LINE
  8
0
 10
-19.35
 20
63.25
 11
-19.5784
 21
63.265
  0
LINE
  8
0
 10
-19.5784
 20
63.265
 11
-19.8029
 21
63.3096
  0
LINE
  8
0
 10
-19.8029
 20
63.3096
 11
-20.0197
 21
63.3832
  0
LINE
  8
0
 10
-20.0197
 20
63.3832
 11
-20.225
 21
63.4845
  0
LINE
  8
0
 10
-20.225
 20
63.4845
 11
-20.4153
 21
63.6116
  0
LINE
  8
0
 10
-20.4153
 20
63.6116
 11
-20.5874
 21
63.7626
  0
LINE
  8
0
 10
-20.5874
 20
63.7626
 11
-20.7384
 21
63.9347
  0
LINE
  8
0
 10
-20.7384
 20
63.9347
 11
-20.8655
 21
64.125
  0
LINE
  8
0
 10
-20.8655
 20
64.125
 11
-20.9668
 21
64.3303
  0
LINE
  8
0
 10
-20.9668
 20
64.3303
 11
-21.0404
 21
64.5471
  0
LINE
  8
0
 10
-21.0404
 20
64.5471
 11
-21.085
 21
64.7716
  0
LINE
  8
0
 10
-21.085
 20
64.7716
 11
-21.1
 21
65
  0
LINE
  8
0
 10
17.6
 20
-65
 11
17.615
 21
-64.7716
  0
LINE
  8
0
 10
17.615
 20
-64.7716
 11
17.6596
 21
-64.5471
  0
LINE
  8
0
 10
17.6596
 20
-64.5471
 11
17.7332
 21
-64.3303
  0
LINE
  8
0
 10
17.7332
 20
-64.3303
 11
17.8345
 21
-64.125
  0
LINE
  8
0
 10
17.8345
 20
-64.125
 11
17.9616
 21
-63.9347
  0
LINE
  8
0
 10
17.9616
 20
-63.9347
 11
18.1126
 21
-63.7626
  0
LINE
  8
0
 10
18.1126
 20
-63.7626
 11
18.2847
 21
-63.6116
  0
LINE
  8
0
 10
18.2847
 20
-63.6116
 11
18.475
 21
-63.4845
  0
LINE
  8
0
 10
18.475
 20
-63.4845
 11
18.6803
 21
-63.3832
  0
LINE
  8
0
 10
18.6803
 20
-63.3832
 11
18.8971
 21
-63.3096
  0
LINE
  8
0
 10
18.8971
 20
-63.3096
 11
19.1216
 21
-63.265
  0
LINE
  8
0
 10
19.1216
 20
-63.265
 11
19.35
 21
-63.25
  0
LINE
  8
0
 10
19.35
 20
-63.25
 11
19.5784
 21
-63.265
  0
LINE
  8
0
 10
19.5784
 20
-63.265
 11
19.8029
 21
-63.3096
  0
LINE
  8
0
 10
19.8029
 20
-63.3096
 11
20.0197
 21
-63.3832
  0
LINE
  8
0
 10
20.0197
 20
-63.3832
 11
20.225
 21
-63.4845
  0
LINE
  8
0
 10
20.225
 20
-63.4845
 11
20.4153
 21
-63.6116
  0
LINE
  8
0
 10
20.4153
 20
-63.6116
 11
20.5874
 21
-63.7626
  0
LINE
  8
0
 10
20.5874
 20
-63.7626
 11
20.7384
 21
-63.9347
  0
LINE
  8
0
 10
20.7384
 20
-63.9347
 11
20.8655
 21
-64.125
  0
LINE
  8
0
 10
20.8655
 20
-64.125
 11
20.9668
 21
-64.3303
  0
LINE
  8
0
 10
20.9668
 20
-64.3303
 11
21.0404
 21
-64.5471
  0
LINE
  8
0
 10
21.0404
 20
-64.5471
 11
21.085
 21
-64.7716
  0
LINE
  8
0
 10
21.085
 20
-64.7716
 11
21.1
 21
-65
  0
LINE
  8
0
 10
21.1
 20
-65
 11
21.085
 21
-65.2284
  0
LINE
  8
0
 10
21.085
 20
-65.2284
 11
21.0404
 21
-65.4529
  0
LINE
  8
0
 10
21.0404
 20
-65.4529
 11
20.9668
 21
-65.6697
  0
LINE
  8
0
 10
20.9668
 20
-65.6697
 11
20.8655
 21
-65.875
  0
LINE
  8
0
 10
20.8655
 20
-65.875
 11
20.7384
 21
-66.0653
  0
LINE
  8
0
 10
20.7384
 20
-66.0653
 11
20.5874
 21
-66.2374
  0
LINE
  8
0
 10
20.5874
 20
-66.2374
 11
20.4153
 21
-66.3884
  0
LINE
  8
0
 10
20.4153
 20
-66.3884
 11
20.225
 21
-66.5155
  0
LINE
  8
0
 10
20.225
 20
-66.5155
 11
20.0197
 21
-66.6168
  0
LINE
  8
0
 10
20.0197
 20
-66.6168
 11
19.8029
 21
-66.6904
  0
LINE
  8
0
 10
19.8029
 20
-66.6904
 11
19.5784
 21
-66.735
  0
LINE
  8
0
 10
19.5784
 20
-66.735
 11
19.35
 21
-66.75
  0
LINE
  8
0
 10
19.35
 20
-66.75
 11
19.1216
 21
-66.735
  0
LINE
  8
0
 10
19.1216
 20
-66.735
 11
18.8971
 21
-66.6904
  0
LINE
  8
0
 10
18.8971
 20
-66.6904
 11
18.6803
 21
-66.6168
  0
LINE
  8
0
 10
18.6803
 20
-66.6168
 11
18.475
 21
-66.5155
  0
LINE
  8
0
 10
18.475
 20
-66.5155
 11
18.2847
 21
-66.3884
  0
LINE
  8
0
 10
18.2847
 20
-66.3884
 11
18.1126
 21
-66.2374
  0
LINE
  8
0
 10
18.1126
 20
-66.2374
 11
17.9616
 21
-66.0653
  0
LINE
  8
0
 10
17.9616
 20
-66.0653
 11
17.8345
 21
-65.875
  0
LINE
  8
0
 10
17.8345
 20
-65.875
 11
17.7332
 21
-65.6697
  0
LINE
  8
0
 10
17.7332
 20
-65.6697
 11
17.6596
 21
-65.4529
  0
LINE
  8
0
 10
17.6596
 20
-65.4529
 11
17.615
 21
-65.2284
  0
LINE
  8
0
 10
17.615
 20
-65.2284
 11
17.6
 21
-65
  0
LINE
  8
0
 10
17.6
 20
-45
 11
17.615
 21
-44.7716
  0
LINE
  8
0
 10
17.615
 20
-44.7716
 11
17.6596
 21
-44.5471
  0
LINE
  8
0
 10
17.6596
 20
-44.5471
 11
17.7332
 21
-44.3303
  0
LINE
  8
0
 10
17.7332
 20
-44.3303
 11
17.8345
 21
-44.125
  0
LINE
  8
0
 10
17.8345
 20
-44.125
 11
17.9616
 21
-43.9347
  0
LINE
  8
0
 10
17.9616
 20
-43.9347
 11
18.1126
 21
-43.7626
  0
LINE
  8
0
 10
18.1126
 20
-43.7626
 11
18.2847
 21
-43.6116
  0
LINE
  8
0
 10
18.2847
 20
-43.6116
 11
18.475
 21
-43.4845
  0
LINE
  8
0
 10
18.475
 20
-43.4845
 11
18.6803
 21
-43.3832
  0
LINE
  8
0
 10
18.6803
 20
-43.3832
 11
18.8971
 21
-43.3096
  0
LINE
  8
0
 10
18.8971
 20
-43.3096
 11
19.1216
 21
-43.265
  0
LINE
  8
0
 10
19.1216
 20
-43.265
 11
19.35
 21
-43.25
  0
LINE
  8
0
 10
19.35
 20
-43.25
 11
19.5784
 21
-43.265
  0
LINE
  8
0
 10
19.5784
 20
-43.265
 11
19.8029
 21
-43.3096
  0
LINE
  8
0
 10
19.8029
 20
-43.3096
 11
20.0197
 21
-43.3832
  0
LINE
  8
0
 10
20.0197
 20
-43.3832
 11
20.225
 21
-43.4845
  0
LINE
  8
0
 10
20.225
 20
-43.4845
 11
20.4153
 21
-43.6116
  0
LINE
  8
0
 10
20.4153
 20
-43.6116
 11
20.5874
 21
-43.7626
  0
LINE
  8
0
 10
20.5874
 20
-43.7626
 11
20.7384
 21
-43.9347
  0
LINE
  8
0
 10
20.7384
 20
-43.9347
 11
20.8655
 21
-44.125
  0
LINE
  8
0
 10
20.8655
 20
-44.125
 11
20.9668
 21
-44.3303
  0
LINE
  8
0
 10
20.9668
 20
-44.3303
 11
21.0404
 21
-44.5471
  0
LINE
  8
0
 10
21.0404
 20
-44.5471
 11
21.085
 21
-44.7716
  0
LINE
  8
0
 10
21.085
 20
-44.7716
 11
21.1
 21
-45
  0
LINE
  8
0
 10
21.1
 20
-45
 11
21.085
 21
-45.2284
  0
LINE
  8
0
 10
21.085
 20
-45.2284
 11
21.0404
 21
-45.4529
  0
LINE
  8
0
 10
21.0404
 20
-45.4529
 11
20.9668
 21
-45.6697
  0
LINE
  8
0
 10
20.9668
 20
-45.6697
 11
20.8655
 21
-45.875
  0
LINE
  8
0
 10
20.8655
 20
-45.875
 11
20.7384
 21
-46.0653
  0
LINE
  8
0
 10
20.7384
 20
-46.0653
 11
20.5874
 21
-46.2374
  0
LINE
  8
0
 10
20.5874
 20
-46.2374
 11
20.4153
 21
-46.3884
  0
LINE
  8
0
 10
20.4153
 20
-46.3884
 11
20.225
 21
-46.5155
  0
LINE
  8
0
 10
20.225
 20
-46.5155
 11
20.0197
 21
-46.6168
  0
LINE
  8
0
 10
20.0197
 20
-46.6168
 11
19.8029
 21
-46.6904
  0
LINE
  8
0
 10
19.8029
 20
-46.6904
 11
19.5784
 21
-46.735
  0
LINE
  8
0
 10
19.5784
 20
-46.735
 11
19.35
 21
-46.75
  0
LINE
  8
0
 10
19.35
 20
-46.75
 11
19.1216
 21
-46.735
  0
LINE
  8
0
 10
19.1216
 20
-46.735
 11
18.8971
 21
-46.6904
  0
LINE
  8
0
 10
18.8971
 20
-46.6904
 11
18.6803
 21
-46.6168
  0
LINE
  8
0
 10
18.6803
 20
-46.6168
 11
18.475
 21
-46.5155
  0
LINE
  8
0
 10
18.475
 20
-46.5155
 11
18.2847
 21
-46.3884
  0
LINE
  8
0
 10
18.2847
 20
-46.3884
 11
18.1126
 21
-46.2374
  0
LINE
  8
0
 10
18.1126
 20
-46.2374
 11
17.9616
 21
-46.0653
  0
LINE
  8
0
 10
17.9616
 20
-46.0653
 11
17.8345
 21
-45.875
  0
LINE
  8
0
 10
17.8345
 20
-45.875
 11
17.7332
 21
-45.6697
  0
LINE
  8
0
 10
17.7332
 20
-45.6697
 11
17.6596
 21
-45.4529
  0
LINE
  8
0
 10
17.6596
 20
-45.4529
 11
17.615
 21
-45.2284
  0
LINE
  8
0
 10
17.615
 20
-45.2284
 11
17.6
 21
-45
  0
LINE
  8
0
 10
17.6
 20
45
 11
17.615
 21
45.2284
  0
LINE
  8
0
 10
17.615
 20
45.2284
 11
17.6596
 21
45.4529
  0
LINE
  8
0
 10
17.6596
 20
45.4529
 11
17.7332
 21
45.6697
  0
LINE
  8
0
 10
17.7332
 20
45.6697
 11
17.8345
 21
45.875
  0
LINE
  8
0
 10
17.8345
 20
45.875
 11
17.9616
 21
46.0653
  0
LINE
  8
0
 10
17.9616
 20
46.0653
 11
18.1126
 21
46.2374
  0
LINE
  8
0
 10
18.1126
 20
46.2374
 11
18.2847
 21
46.3884
  0
LINE
  8
0
 10
18.2847
 20
46.3884
 11
18.475
 21
46.5155
  0
LINE
  8
0
 10
18.475
 20
46.5155
 11
18.6803
 21
46.6168
  0
LINE
  8
0
 10
18.6803
 20
46.6168
 11
18.8971
 21
46.6904
  0
LINE
  8
0
 10
18.8971
 20
46.6904
 11
19.1216
 21
46.735
  0
LINE
  8
0
 10
19.1216
 20
46.735
 11
19.35
 21
46.75
  0
LINE
  8
0
 10
19.35
 20
46.75
 11
19.5784
 21
46.735
  0
LINE
  8
0
 10
19.5784
 20
46.735
 11
19.8029
 21
46.6904
  0
LINE
  8
0
 10
19.8029
 20
46.6904
 11
20.0197
 21
46.6168
  0
LINE
  8
0
 10
20.0197
 20
46.6168
 11
20.225
 21
46.5155
  0
LINE
  8
0
 10
20.225
 20
46.5155
 11
20.4153
 21
46.3884
  0
LINE
  8
0
 10
20.4153
 20
46.3884
 11
20.5874
 21
46.2374
  0
LINE
  8
0
 10
20.5874
 20
46.2374
 11
20.7384
 21
46.0653
  0
LINE
  8
0
 10
20.7384
 20
46.0653
 11
20.8655
 21
45.875
  0
LINE
  8
0
 10
20.8655
 20
45.875
 11
20.9668
 21
45.6697
  0
LINE
  8
0
 10
20.9668
 20
45.6697
 11
21.0404
 21
45.4529
  0
LINE
  8
0
 10
21.0404
 20
45.4529
 11
21.085
 21
45.2284
  0
LINE
  8
0
 10
21.085
 20
45.2284
 11
21.1
 21
45
  0
LINE
  8
0
 10
21.1
 20
45
 11
21.085
 21
44.7716
  0
LINE
  8
0
 10
21.085
 20
44.7716
 11
21.0404
 21
44.5471
  0
LINE
  8
0
 10
21.0404
 20
44.5471
 11
20.9668
 21
44.3303
  0
LINE
  8
0
 10
20.9668
 20
44.3303
 11
20.8655
 21
44.125
  0
LINE
  8
0
 10
20.8655
 20
44.125
 11
20.7384
 21
43.9347
  0
LINE
  8
0
 10
20.7384
 20
43.9347
 11
20.5874
 21
43.7626
  0
LINE
  8
0
 10
20.5874
 20
43.7626
 11
20.4153
 21
43.6116
  0
LINE
  8
0
 10
20.4153
 20
43.6116
 11
20.225
 21
43.4845
  0
LINE
  8
0
 10
20.225
 20
43.4845
 11
20.0197
 21
43.3832
  0
LINE
  8
0
 10
20.0197
 20
43.3832
 11
19.8029
 21
43.3096
  0
LINE
  8
0
 10
19.8029
 20
43.3096
 11
19.5784
 21
43.265
  0
LINE
  8
0
 10
19.5784
 20
43.265
 11
19.35
 21
43.25
  0
LINE
  8
0
 10
19.35
 20
43.25
 11
19.1216
 21
43.265
  0
LINE
  8
0
 10
19.1216
 20
43.265
 11
18.8971
 21
43.3096
  0
LINE
  8
0
 10
18.8971
 20
43.3096
 11
18.6803
 21
43.3832
  0
LINE
  8
0
 10
18.6803
 20
43.3832
 11
18.475
 21
43.4845
  0
LINE
  8
0
 10
18.475
 20
43.4845
 11
18.2847
 21
43.6116
  0
LINE
  8
0
 10
18.2847
 20
43.6116
 11
18.1126
 21
43.7626
  0
LINE
  8
0
 10
18.1126
 20
43.7626
 11
17.9616
 21
43.9347
  0
LINE
  8
0
 10
17.9616
 20
43.9347
 11
17.8345
 21
44.125
  0
LINE
  8
0
 10
17.8345
 20
44.125
 11
17.7332
 21
44.3303
  0
LINE
  8
0
 10
17.7332
 20
44.3303
 11
17.6596
 21
44.5471
  0
LINE
  8
0
 10
17.6596
 20
44.5471
 11
17.615
 21
44.7716
  0
LINE
  8
0
 10
17.615
 20
44.7716
 11
17.6
 21
45
  0
LINE
  8
0
 10
17.6
 20
65
 11
17.615
 21
65.2284
  0
LINE
  8
0
 10
17.615
 20
65.2284
 11
17.6596
 21
65.4529
  0
LINE
  8
0
 10
17.6596
 20
65.4529
 11
17.7332
 21
65.6697
  0
LINE
  8
0
 10
17.7332
 20
65.6697
 11
17.8345
 21
65.875
  0
LINE
  8
0
 10
17.8345
 20
65.875
 11
17.9616
 21
66.0653
  0
LINE
  8
0
 10
17.9616
 20
66.0653
 11
18.1126
 21
66.2374
  0
LINE
  8
0
 10
18.1126
 20
66.2374
 11
18.2847
 21
66.3884
  0
LINE
  8
0
 10
18.2847
 20
66.3884
 11
18.475
 21
66.5155
  0
LINE
  8
0
 10
18.475
 20
66.5155
 11
18.6803
 21
66.6168
  0
LINE
  8
0
 10
18.6803
 20
66.6168
 11
18.8971
 21
66.6904
  0
LINE
  8
0
 10
18.8971
 20
66.6904
 11
19.1216
 21
66.735
  0
LINE
  8
0
 10
19.1216
 20
66.735
 11
19.35
 21
66.75
  0
LINE
  8
0
 10
19.35
 20
66.75
 11
19.5784
 21
66.735
  0
LINE
  8
0
 10
19.5784
 20
66.735
 11
19.8029
 21
66.6904
  0
LINE
  8
0
 10
19.8029
 20
66.6904
 11
20.0197
 21
66.6168
  0
LINE
  8
0
 10
20.0197
 20
66.6168
 11
20.225
 21
66.5155
  0
LINE
  8
0
 10
20.225
 20
66.5155
 11
20.4153
 21
66.3884
  0
LINE
  8
0
 10
20.4153
 20
66.3884
 11
20.5874
 21
66.2374
  0
LINE
  8
0
 10
20.5874
 20
66.2374
 11
20.7384
 21
66.0653
  0
LINE
  8
0
 10
20.7384
 20
66.0653
 11
20.8655
 21
65.875
  0
LINE
  8
0
 10
20.8655
 20
65.875
 11
20.9668
 21
65.6697
  0
LINE
  8
0
 10
20.9668
 20
65.6697
 11
21.0404
 21
65.4529
  0
LINE
  8
0
 10
21.0404
 20
65.4529
 11
21.085
 21
65.2284
  0
LINE
  8
0
 10
21.085
 20
65.2284
 11
21.1
 21
65
  0
LINE
  8
0
 10
21.1
 20
65
 11
21.085
 21
64.7716
  0
LINE
  8
0
 10
21.085
 20
64.7716
 11
21.0404
 21
64.5471
  0
LINE
  8
0
 10
21.0404
 20
64.5471
 11
20.9668
 21
64.3303
  0
LINE
  8
0
 10
20.9668
 20
64.3303
 11
20.8655
 21
64.125
  0
LINE
  8
0
 10
20.8655
 20
64.125
 11
20.7384
 21
63.9347
  0
LINE
  8
0
 10
20.7384
 20
63.9347
 11
20.5874
 21
63.7626
  0
LINE
  8
0
 10
20.5874
 20
63.7626
 11
20.4153
 21
63.6116
  0
LINE
  8
0
 10
20.4153
 20
63.6116
 11
20.225
 21
63.4845
  0
LINE
  8
0
 10
20.225
 20
63.4845
 11
20.0197
 21
63.3832
  0
LINE
  8
0
 10
20.0197
 20
63.3832
 11
19.8029
 21
63.3096
  0
LINE
  8
0
 10
19.8029
 20
63.3096
 11
19.5784
 21
63.265
  0
LINE
  8
0
 10
19.5784
 20
63.265
 11
19.35
 21
63.25
  0
LINE
  8
0
 10
19.35
 20
63.25
 11
19.1216
 21
63.265
  0
LINE
  8
0
 10
19.1216
 20
63.265
 11
18.8971
 21
63.3096
  0
LINE
  8
0
 10
18.8971
 20
63.3096
 11
18.6803
 21
63.3832
  0
LINE
  8
0
 10
18.6803
 20
63.3832
 11
18.475
 21
63.4845
  0
LINE
  8
0
 10
18.475
 20
63.4845
 11
18.2847
 21
63.6116
  0
LINE
  8
0
 10
18.2847
 20
63.6116
 11
18.1126
 21
63.7626
  0
LINE
  8
0
 10
18.1126
 20
63.7626
 11
17.9616
 21
63.9347
  0
LINE
  8
0
 10
17.9616
 20
63.9347
 11
17.8345
 21
64.125
  0
LINE
  8
0
 10
17.8345
 20
64.125
 11
17.7332
 21
64.3303
  0
LINE
  8
0
 10
17.7332
 20
64.3303
 11
17.6596
 21
64.5471
  0
LINE
  8
0
 10
17.6596
 20
64.5471
 11
17.615
 21
64.7716
  0
LINE
  8
0
 10
17.615
 20
64.7716
 11
17.6
 21
65
  0
LINE
  8
0
 10
43.25
 20
-85
 11
43.265
 21
-84.7716
  0
LINE
  8
0
 10
43.265
 20
-84.7716
 11
43.3096
 21
-84.5471
  0
LINE
  8
0
 10
43.3096
 20
-84.5471
 11
43.3832
 21
-84.3303
  0
LINE
  8
0
 10
43.3832
 20
-84.3303
 11
43.4845
 21
-84.125
  0
LINE
  8
0
 10
43.4845
 20
-84.125
 11
43.6116
 21
-83.9347
  0
LINE
  8
0
 10
43.6116
 20
-83.9347
 11
43.7626
 21
-83.7626
  0
LINE
  8
0
 10
43.7626
 20
-83.7626
 11
43.9347
 21
-83.6116
  0
LINE
  8
0
 10
43.9347
 20
-83.6116
 11
44.125
 21
-83.4845
  0
LINE
  8
0
 10
44.125
 20
-83.4845
 11
44.3303
 21
-83.3832
  0
LINE
  8
0
 10
44.3303
 20
-83.3832
 11
44.5471
 21
-83.3096
  0
LINE
  8
0
 10
44.5471
 20
-83.3096
 11
44.7716
 21
-83.265
  0
LINE
  8
0
 10
44.7716
 20
-83.265
 11
45
 21
-83.25
  0
LINE
  8
0
 10
45
 20
-83.25
 11
45.2284
 21
-83.265
  0
LINE
  8
0
 10
45.2284
 20
-83.265
 11
45.4529
 21
-83.3096
  0
LINE
  8
0
 10
45.4529
 20
-83.3096
 11
45.6697
 21
-83.3832
  0
LINE
  8
0
 10
45.6697
 20
-83.3832
 11
45.875
 21
-83.4845
  0
LINE
  8
0
 10
45.875
 20
-83.4845
 11
46.0653
 21
-83.6116
  0
LINE
  8
0
 10
46.0653
 20
-83.6116
 11
46.2374
 21
-83.7626
  0
LINE
  8
0
 10
46.2374
 20
-83.7626
 11
46.3884
 21
-83.9347
  0
LINE
  8
0
 10
46.3884
 20
-83.9347
 11
46.5155
 21
-84.125
  0
LINE
  8
0
 10
46.5155
 20
-84.125
 11
46.6168
 21
-84.3303
  0
LINE
  8
0
 10
46.6168
 20
-84.3303
 11
46.6904
 21
-84.5471
  0
LINE
  8
0
 10
46.6904
 20
-84.5471
 11
46.735
 21
-84.7716
  0
LINE
  8
0
 10
46.735
 20
-84.7716
 11
46.75
 21
-85
  0
LINE
  8
0
 10
46.75
 20
-85
 11
46.735
 21
-85.2284
  0
LINE
  8
0
 10
46.735
 20
-85.2284
 11
46.6904
 21
-85.4529
  0
LINE
  8
0
 10
46.6904
 20
-85.4529
 11
46.6168
 21
-85.6697
  0
LINE
  8
0
 10
46.6168
 20
-85.6697
 11
46.5155
 21
-85.875
  0
LINE
  8
0
 10
46.5155
 20
-85.875
 11
46.3884
 21
-86.0653
  0
LINE
  8
0
 10
46.3884
 20
-86.0653
 11
46.2374
 21
-86.2374
  0
LINE
  8
0
 10
46.2374
 20
-86.2374
 11
46.0653
 21
-86.3884
  0
LINE
  8
0
 10
46.0653
 20
-86.3884
 11
45.875
 21
-86.5155
  0
LINE
  8
0
 10
45.875
 20
-86.5155
 11
45.6697
 21
-86.6168
  0
LINE
  8
0
 10
45.6697
 20
-86.6168
 11
45.4529
 21
-86.6904
  0
LINE
  8
0
 10
45.4529
 20
-86.6904
 11
45.2284
 21
-86.735
  0
LINE
  8
0
 10
45.2284
 20
-86.735
 11
45
 21
-86.75
  0
LINE
  8
0
 10
45
 20
-86.75
 11
44.7716
 21
-86.735
  0
LINE
  8
0
 10
44.7716
 20
-86.735
 11
44.5471
 21
-86.6904
  0
LINE
  8
0
 10
44.5471
 20
-86.6904
 11
44.3303
 21
-86.6168
  0
LINE
  8
0
 10
44.3303
 20
-86.6168
 11
44.125
 21
-86.5155
  0
LINE
  8
0
 10
44.125
 20
-86.5155
 11
43.9347
 21
-86.3884
  0
LINE
  8
0
 10
43.9347
 20
-86.3884
 11
43.7626
 21
-86.2374
  0
LINE
  8
0
 10
43.7626
 20
-86.2374
 11
43.6116
 21
-86.0653
  0
LINE
  8
0
 10
43.6116
 20
-86.0653
 11
43.4845
 21
-85.875
  0
LINE
  8
0
 10
43.4845
 20
-85.875
 11
43.3832
 21
-85.6697
  0
LINE
  8
0
 10
43.3832
 20
-85.6697
 11
43.3096
 21
-85.4529
  0
LINE
  8
0
 10
43.3096
 20
-85.4529
 11
43.265
 21
-85.2284
  0
LINE
  8
0
 10
43.265
 20
-85.2284
 11
43.25
 21
-85
  0
LINE
  8
0
 10
43.25
 20
85
 11
43.265
 21
85.2284
  0
LINE
  8
0
 10
43.265
 20
85.2284
 11
43.3096
 21
85.4529
  0
LINE
  8
0
 10
43.3096
 20
85.4529
 11
43.3832
 21
85.6697
  0
LINE
  8
0
 10
43.3832
 20
85.6697
 11
43.4845
 21
85.875
  0
LINE
  8
0
 10
43.4845
 20
85.875
 11
43.6116
 21
86.0653
  0
LINE
  8
0
 10
43.6116
 20
86.0653
 11
43.7626
 21
86.2374
  0
LINE
  8
0
 10
43.7626
 20
86.2374
 11
43.9347
 21
86.3884
  0
LINE
  8
0
 10
43.9347
 20
86.3884
 11
44.125
 21
86.5155
  0
LINE
  8
0
 10
44.125
 20
86.5155
 11
44.3303
 21
86.6168
  0
LINE
  8
0
 10
44.3303
 20
86.6168
 11
44.5471
 21
86.6904
  0
LINE
  8
0
 10
44.5471
 20
86.6904
 11
44.7716
 21
86.735
  0
LINE
  8
0
 10
44.7716
 20
86.735
 11
45
 21
86.75
  0
LINE
  8
0
 10
45
 20
86.75
 11
45.2284
 21
86.735
  0
LINE
  8
0
 10
45.2284
 20
86.735
 11
45.4529
 21
86.6904
  0
LINE
  8
0
 10
45.4529
 20
86.6904
 11
45.6697
 21
86.6168
  0
LINE
  8
0
 10
45.6697
 20
86.6168
 11
45.875
 21
86.5155
  0
LINE
  8
0
 10
45.875
 20
86.5155
 11
46.0653
 21
86.3884
  0
LINE
  8
0
 10
46.0653
 20
86.3884
 11
46.2374
 21
86.2374
  0
LINE
  8
0
 10
46.2374
 20
86.2374
 11
46.3884
 21
86.0653
  0
LINE
  8
0
 10
46.3884
 20
86.0653
 11
46.5155
 21
85.875
  0
LINE
  8
0
 10
46.5155
 20
85.875
 11
46.6168
 21
85.6697
  0
LINE
  8
0
 10
46.6168
 20
85.6697
 11
46.6904
 21
85.4529
  0
LINE
  8
0
 10
46.6904
 20
85.4529
 11
46.735
 21
85.2284
  0
LINE
  8
0
 10
46.735
 20
85.2284
 11
46.75
 21
85
  0
LINE
  8
0
 10
46.75
 20
85
 11
46.735
 21
84.7716
  0
LINE
  8
0
 10
46.735
 20
84.7716
 11
46.6904
 21
84.5471
  0
LINE
  8
0
 10
46.6904
 20
84.5471
 11
46.6168
 21
84.3303
  0
LINE
  8
0
 10
46.6168
 20
84.3303
 11
46.5155
 21
84.125
  0
LINE
  8
0
 10
46.5155
 20
84.125
 11
46.3884
 21
83.9347
  0
LINE
  8
0
 10
46.3884
 20
83.9347
 11
46.2374
 21
83.7626
  0
LINE
  8
0
 10
46.2374
 20
83.7626
 11
46.0653
 21
83.6116
  0
LINE
  8
0
 10
46.0653
 20
83.6116
 11
45.875
 21
83.4845
  0
LINE
  8
0
 10
45.875
 20
83.4845
 11
45.6697
 21
83.3832
  0
LINE
  8
0
 10
45.6697
 20
83.3832
 11
45.4529
 21
83.3096
  0
LINE
  8
0
 10
45.4529
 20
83.3096
 11
45.2284
 21
83.265
  0
LINE
  8
0
 10
45.2284
 20
83.265
 11
45
 21
83.25
  0
LINE
  8
0
 10
45
 20
83.25
 11
44.7716
 21
83.265
  0
LINE
  8
0
 10
44.7716
 20
83.265
 11
44.5471
 21
83.3096
  0
LINE
  8
0
 10
44.5471
 20
83.3096
 11
44.3303
 21
83.3832
  0
LINE
  8
0
 10
44.3303
 20
83.3832
 11
44.125
 21
83.4845
  0
LINE
  8
0
 10
44.125
 20
83.4845
 11
43.9347
 21
83.6116
  0
LINE
  8
0
 10
43.9347
 20
83.6116
 11
43.7626
 21
83.7626
  0
LINE
  8
0
 10
43.7626
 20
83.7626
 11
43.6116
 21
83.9347
  0
LINE
  8
0
 10
43.6116
 20
83.9347
 11
43.4845
 21
84.125
  0
LINE
  8
0
 10
43.4845
 20
84.125
 11
43.3832
 21
84.3303
  0
LINE
  8
0
 10
43.3832
 20
84.3303
 11
43.3096
 21
84.5471
  0
LINE
  8
0
 10
43.3096
 20
84.5471
 11
43.265
 21
84.7716
  0
LINE
  8
0
 10
43.265
 20
84.7716
 11
43.25
 21
85
  0
LINE
  8
0
 10
74.5
 20
0
 11
74.5727
 21
1.10947
  0
LINE
  8
0
 10
74.5727
 20
1.10947
 11
74.7896
 21
2.19996
  0
LINE
  8
0
 10
74.7896
 20
2.19996
 11
75.147
 21
3.25281
  0
LINE
  8
0
 10
75.147
 20
3.25281
 11
75.6388
 21
4.25
  0
LINE
  8
0
 10
75.6388
 20
4.25
 11
76.2565
 21
5.17447
  0
LINE
  8
0
 10
76.2565
 20
5.17447
 11
76.9896
 21
6.01041
  0
LINE
  8
0
 10
76.9896
 20
6.01041
 11
77.8255
 21
6.7435
  0
LINE
  8
0
 10
77.8255
 20
6.7435
 11
78.75
 21
7.36122
  0
LINE
  8
0
 10
78.75
 20
7.36122
 11
79.7472
 21
7.85298
  0
LINE
  8
0
 10
79.7472
 20
7.85298
 11
79.7594
 21
7.85711
  0
LINE
  8
0
 10
79.7594
 20
7.85711
 11
79.75
 21
8
  0
LINE
  8
0
 10
79.75
 20
8
 11
79.7778
 21
8.42421
  0
LINE
  8
0
 10
79.7778
 20
8.42421
 11
79.8607
 21
8.84116
  0
LINE
  8
0
 10
79.8607
 20
8.84116
 11
79.9974
 21
9.24372
  0
LINE
  8
0
 10
79.9974
 20
9.24372
 11
80.1854
 21
9.625
  0
LINE
  8
0
 10
80.1854
 20
9.625
 11
80.4216
 21
9.97847
  0
LINE
  8
0
 10
80.4216
 20
9.97847
 11
80.7019
 21
10.2981
  0
LINE
  8
0
 10
80.7019
 20
10.2981
 11
81.0215
 21
10.5784
  0
LINE
  8
0
 10
81.0215
 20
10.5784
 11
81.375
 21
10.8146
  0
LINE
  8
0
 10
81.375
 20
10.8146
 11
81.7563
 21
11.0026
  0
LINE
  8
0
 10
81.7563
 20
11.0026
 11
82.1588
 21
11.1393
  0
LINE
  8
0
 10
82.1588
 20
11.1393
 11
82.5758
 21
11.2222
  0
LINE
  8
0
 10
82.5758
 20
11.2222
 11
83
 21
11.25
  0
LINE
  8
0
 10
83
 20
11.25
 11
83.4242
 21
11.2222
  0
LINE
  8
0
 10
83.4242
 20
11.2222
 11
83.8412
 21
11.1393
  0
LINE
  8
0
 10
83.8412
 20
11.1393
 11
84.2437
 21
11.0026
  0
LINE
  8
0
 10
84.2437
 20
11.0026
 11
84.625
 21
10.8146
  0
LINE
  8
0
 10
84.625
 20
10.8146
 11
84.9785
 21
10.5784
  0
LINE
  8
0
 10
84.9785
 20
10.5784
 11
85.2981
 21
10.2981
  0
LINE
  8
0
 10
85.2981
 20
10.2981
 11
85.5784
 21
9.97847
  0
LINE
  8
0
 10
85.5784
 20
9.97847
 11
85.8146
 21
9.625
  0
LINE
  8
0
 10
85.8146
 20
9.625
 11
86.0026
 21
9.24372
  0
LINE
  8
0
 10
86.0026
 20
9.24372
 11
86.1393
 21
8.84116
  0
LINE
  8
0
 10
86.1393
 20
8.84116
 11
86.2222
 21
8.42421
  0
LINE
  8
0
 10
86.2222
 20
8.42421
 11
86.25
 21
8
  0
LINE
  8
0
 10
86.25
 20
8
 11
86.2406
 21
7.85711
  0
LINE
  8
0
 10
86.2406
 20
7.85711
 11
86.2528
 21
7.85298
  0
LINE
  8
0
 10
86.2528
 20
7.85298
 11
87.25
 21
7.36122
  0
LINE
  8
0
 10
87.25
 20
7.36122
 11
88.1745
 21
6.7435
  0
LINE
  8
0
 10
88.1745
 20
6.7435
 11
89.0104
 21
6.01041
  0
LINE
  8
0
 10
89.0104
 20
6.01041
 11
89.7435
 21
5.17447
  0
LINE
  8
0
 10
89.7435
 20
5.17447
 11
90.3612
 21
4.25
  0
LINE
  8
0
 10
90.3612
 20
4.25
 11
90.853
 21
3.25281
  0
LINE
  8
0
 10
90.853
 20
3.25281
 11
91.2104
 21
2.19996
  0
LINE
  8
0
 10
91.2104
 20
2.19996
 11
91.4273
 21
1.10947
  0
LINE
  8
0
 10
91.4273
 20
1.10947
 11
91.5
 21
0
  0
LINE
  8
0
 10
91.5
 20
0
 11
91.4273
 21
-1.10947
  0
LINE
  8
0
 10
91.4273
 20
-1.10947
 11
91.2104
 21
-2.19996
  0
LINE
  8
0
 10
91.2104
 20
-2.19996
 11
90.853
 21
-3.25281
  0
LINE
  8
0
 10
90.853
 20
-3.25281
 11
90.3612
 21
-4.25
  0
LINE
  8
0
 10
90.3612
 20
-4.25
 11
89.7435
 21
-5.17447
  0
LINE
  8
0
 10
89.7435
 20
-5.17447
 11
89.0104
 21
-6.01041
  0
LINE
  8
0
 10
89.0104
 20
-6.01041
 11
88.1745
 21
-6.7435
  0
LINE
  8
0
 10
88.1745
 20
-6.7435
 11
87.25
 21
-7.36122
  0
LINE
  8
0
 10
87.25
 20
-7.36122
 11
86.2528
 21
-7.85298
  0
LINE
  8
0
 10
86.2528
 20
-7.85298
 11
86.2406
 21
-7.85711
  0
LINE
  8
0
 10
86.2406
 20
-7.85711
 11
86.25
 21
-8
  0
LINE
  8
0
 10
86.25
 20
-8
 11
86.2222
 21
-8.42421
  0
LINE
  8
0
 10
86.2222
 20
-8.42421
 11
86.1393
 21
-8.84116
  0
LINE
  8
0
 10
86.1393
 20
-8.84116
 11
86.0026
 21
-9.24372
  0
LINE
  8
0
 10
86.0026
 20
-9.24372
 11
85.8146
 21
-9.625
  0
LINE
  8
0
 10
85.8146
 20
-9.625
 11
85.5784
 21
-9.97847
  0
LINE
  8
0
 10
85.5784
 20
-9.97847
 11
85.2981
 21
-10.2981
  0
LINE
  8
0
 10
85.2981
 20
-10.2981
 11
84.9785
 21
-10.5784
  0
LINE
  8
0
 10
84.9785
 20
-10.5784
 11
84.625
 21
-10.8146
  0
LINE
  8
0
 10
84.625
 20
-10.8146
 11
84.2437
 21
-11.0026
  0
LINE
  8
0
 10
84.2437
 20
-11.0026
 11
83.8412
 21
-11.1393
  0
LINE
  8
0
 10
83.8412
 20
-11.1393
 11
83.4242
 21
-11.2222
  0
LINE
  8
0
 10
83.4242
 20
-11.2222
 11
83
 21
-11.25
  0
LINE
  8
0
 10
83
 20
-11.25
 11
82.5758
 21
-11.2222
  0
LINE
  8
0
 10
82.5758
 20
-11.2222
 11
82.1588
 21
-11.1393
  0
LINE
  8
0
 10
82.1588
 20
-11.1393
 11
81.7563
 21
-11.0026
  0
LINE
  8
0
 10
81.7563
 20
-11.0026
 11
81.375
 21
-10.8146
  0
LINE
  8
0
 10
81.375
 20
-10.8146
 11
81.0215
 21
-10.5784
  0
LINE
  8
0
 10
81.0215
 20
-10.5784
 11
80.7019
 21
-10.2981
  0
LINE
  8
0
 10
80.7019
 20
-10.2981
 11
80.4216
 21
-9.97847
  0
LINE
  8
0
 10
80.4216
 20
-9.97847
 11
80.1854
 21
-9.625
  0
LINE
  8
0
 10
80.1854
 20
-9.625
 11
79.9974
 21
-9.24372
  0
LINE
  8
0
 10
79.9974
 20
-9.24372
 11
79.8607
 21
-8.84116
  0
LINE
  8
0
 10
79.8607
 20
-8.84116
 11
79.7778
 21
-8.42421
  0
LINE
  8
0
 10
79.7778
 20
-8.42421
 11
79.75
 21
-8
  0
LINE
  8
0
 10
79.75
 20
-8
 11
79.7594
 21
-7.85711
  0
LINE
  8
0
 10
79.7594
 20
-7.85711
 11
79.7472
 21
-7.85298
  0
LINE
  8
0
 10
79.7472
 20
-7.85298
 11
78.75
 21
-7.36122
  0
LINE
  8
0
 10
78.75
 20
-7.36122
 11
77.8255
 21
-6.7435
  0
LINE
  8
0
 10
77.8255
 20
-6.7435
 11
76.9896
 21
-6.01041
  0
LINE
  8
0
 10
76.9896
 20
-6.01041
 11
76.2565
 21
-5.17447
  0
LINE
  8
0
 10
76.2565
 20
-5.17447
 11
75.6388
 21
-4.25
  0
LINE
  8
0
 10
75.6388
 20
-4.25
 11
75.147
 21
-3.25281
  0
LINE
  8
0
 10
75.147
 20
-3.25281
 11
74.7896
 21
-2.19996
  0
LINE
  8
0
 10
74.7896
 20
-2.19996
 11
74.5727
 21
-1.10947
  0
LINE
  8
0
 10
74.5727
 20
-1.10947
 11
74.5
 21
0
  0
LINE
  8
0
 10
85.25
 20
-45
 11
85.265
 21
-44.7716
  0
LINE
  8
0
 10
85.265
 20
-44.7716
 11
85.3096
 21
-44.5471
  0
LINE
  8
0
 10
85.3096
 20
-44.5471
 11
85.3832
 21
-44.3303
  0
LINE
  8
0
 10
85.3832
 20
-44.3303
 11
85.4845
 21
-44.125
  0
LINE
  8
0
 10
85.4845
 20
-44.125
 11
85.6116
 21
-43.9347
  0
LINE
  8
0
 10
85.6116
 20
-43.9347
 11
85.7626
 21
-43.7626
  0
LINE
  8
0
 10
85.7626
 20
-43.7626
 11
85.9347
 21
-43.6116
  0
LINE
  8
0
 10
85.9347
 20
-43.6116
 11
86.125
 21
-43.4845
  0
LINE
  8
0
 10
86.125
 20
-43.4845
 11
86.3303
 21
-43.3832
  0
LINE
  8
0
 10
86.3303
 20
-43.3832
 11
86.5471
 21
-43.3096
  0
LINE
  8
0
 10
86.5471
 20
-43.3096
 11
86.7716
 21
-43.265
  0
LINE
  8
0
 10
86.7716
 20
-43.265
 11
87
 21
-43.25
  0
LINE
  8
0
 10
87
 20
-43.25
 11
87.2284
 21
-43.265
  0
LINE
  8
0
 10
87.2284
 20
-43.265
 11
87.4529
 21
-43.3096
  0
LINE
  8
0
 10
87.4529
 20
-43.3096
 11
87.6697
 21
-43.3832
  0
LINE
  8
0
 10
87.6697
 20
-43.3832
 11
87.875
 21
-43.4845
  0
LINE
  8
0
 10
87.875
 20
-43.4845
 11
88.0653
 21
-43.6116
  0
LINE
  8
0
 10
88.0653
 20
-43.6116
 11
88.2374
 21
-43.7626
  0
LINE
  8
0
 10
88.2374
 20
-43.7626
 11
88.3884
 21
-43.9347
  0
LINE
  8
0
 10
88.3884
 20
-43.9347
 11
88.5155
 21
-44.125
  0
LINE
  8
0
 10
88.5155
 20
-44.125
 11
88.6168
 21
-44.3303
  0
LINE
  8
0
 10
88.6168
 20
-44.3303
 11
88.6904
 21
-44.5471
  0
LINE
  8
0
 10
88.6904
 20
-44.5471
 11
88.735
 21
-44.7716
  0
LINE
  8
0
 10
88.735
 20
-44.7716
 11
88.75
 21
-45
  0
LINE
  8
0
 10
88.75
 20
-45
 11
88.735
 21
-45.2284
  0
LINE
  8
0
 10
88.735
 20
-45.2284
 11
88.6904
 21
-45.4529
  0
LINE
  8
0
 10
88.6904
 20
-45.4529
 11
88.6168
 21
-45.6697
  0
LINE
  8
0
 10
88.6168
 20
-45.6697
 11
88.5155
 21
-45.875
  0
LINE
  8
0
 10
88.5155
 20
-45.875
 11
88.3884
 21
-46.0653
  0
LINE
  8
0
 10
88.3884
 20
-46.0653
 11
88.2374
 21
-46.2374
  0
LINE
  8
0
 10
88.2374
 20
-46.2374
 11
88.0653
 21
-46.3884
  0
LINE
  8
0
 10
88.0653
 20
-46.3884
 11
87.875
 21
-46.5155
  0
LINE
  8
0
 10
87.875
 20
-46.5155
 11
87.6697
 21
-46.6168
  0
LINE
  8
0
 10
87.6697
 20
-46.6168
 11
87.4529
 21
-46.6904
  0
LINE
  8
0
 10
87.4529
 20
-46.6904
 11
87.2284
 21
-46.735
  0
LINE
  8
0
 10
87.2284
 20
-46.735
 11
87
 21
-46.75
  0
LINE
  8
0
 10
87
 20
-46.75
 11
86.7716
 21
-46.735
  0
LINE
  8
0
 10
86.7716
 20
-46.735
 11
86.5471
 21
-46.6904
  0
LINE
  8
0
 10
86.5471
 20
-46.6904
 11
86.3303
 21
-46.6168
  0
LINE
  8
0
 10
86.3303
 20
-46.6168
 11
86.125
 21
-46.5155
  0
LINE
  8
0
 10
86.125
 20
-46.5155
 11
85.9347
 21
-46.3884
  0
LINE
  8
0
 10
85.9347
 20
-46.3884
 11
85.7626
 21
-46.2374
  0
LINE
  8
0
 10
85.7626
 20
-46.2374
 11
85.6116
 21
-46.0653
  0
LINE
  8
0
 10
85.6116
 20
-46.0653
 11
85.4845
 21
-45.875
  0
LINE
  8
0
 10
85.4845
 20
-45.875
 11
85.3832
 21
-45.6697
  0
LINE
  8
0
 10
85.3832
 20
-45.6697
 11
85.3096
 21
-45.4529
  0
LINE
  8
0
 10
85.3096
 20
-45.4529
 11
85.265
 21
-45.2284
  0
LINE
  8
0
 10
85.265
 20
-45.2284
 11
85.25
 21
-45
  0
LINE
  8
0
 10
85.25
 20
45
 11
85.265
 21
45.2284
  0
LINE
  8
0
 10
85.265
 20
45.2284
 11
85.3096
 21
45.4529
  0
LINE
  8
0
 10
85.3096
 20
45.4529
 11
85.3832
 21
45.6697
  0
LINE
  8
0
 10
85.3832
 20
45.6697
 11
85.4845
 21
45.875
  0
LINE
  8
0
 10
85.4845
 20
45.875
 11
85.6116
 21
46.0653
  0
LINE
  8
0
 10
85.6116
 20
46.0653
 11
85.7626
 21
46.2374
  0
LINE
  8
0
 10
85.7626
 20
46.2374
 11
85.9347
 21
46.3884
  0
LINE
  8
0
 10
85.9347
 20
46.3884
 11
86.125
 21
46.5155
  0
LINE
  8
0
 10
86.125
 20
46.5155
 11
86.3303
 21
46.6168
  0
LINE
  8
0
 10
86.3303
 20
46.6168
 11
86.5471
 21
46.6904
  0
LINE
  8
0
 10
86.5471
 20
46.6904
 11
86.7716
 21
46.735
  0
LINE
  8
0
 10
86.7716
 20
46.735
 11
87
 21
46.75
  0
LINE
  8
0
 10
87
 20
46.75
 11
87.2284
 21
46.735
  0
LINE
  8
0
 10
87.2284
 20
46.735
 11
87.4529
 21
46.6904
  0
LINE
  8
0
 10
87.4529
 20
46.6904
 11
87.6697
 21
46.6168
  0
LINE
  8
0
 10
87.6697
 20
46.6168
 11
87.875
 21
46.5155
  0
LINE
  8
0
 10
87.875
 20
46.5155
 11
88.0653
 21
46.3884
  0
LINE
  8
0
 10
88.0653
 20
46.3884
 11
88.2374
 21
46.2374
  0
LINE
  8
0
 10
88.2374
 20
46.2374
 11
88.3884
 21
46.0653
  0
LINE
  8
0
 10
88.3884
 20
46.0653
 11
88.5155
 21
45.875
  0
LINE
  8
0
 10
88.5155
 20
45.875
 11
88.6168
 21
45.6697
  0
LINE
  8
0
 10
88.6168
 20
45.6697
 11
88.6904
 21
45.4529
  0
LINE
  8
0
 10
88.6904
 20
45.4529
 11
88.735
 21
45.2284
  0
LINE
  8
0
 10
88.735
 20
45.2284
 11
88.75
 21
45
  0
LINE
  8
0
 10
88.75
 20
45
 11
88.735
 21
44.7716
  0
LINE
  8
0
 10
88.735
 20
44.7716
 11
88.6904
 21
44.5471
  0
LINE
  8
0
 10
88.6904
 20
44.5471
 11
88.6168
 21
44.3303
  0
LINE
  8
0
 10
88.6168
 20
44.3303
 11
88.5155
 21
44.125
  0
LINE
  8
0
 10
88.5155
 20
44.125
 11
88.3884
 21
43.9347
  0
LINE
  8
0
 10
88.3884
 20
43.9347
 11
88.2374
 21
43.7626
  0
LINE
  8
0
 10
88.2374
 20
43.7626
 11
88.0653
 21
43.6116
  0
LINE
  8
0
 10
88.0653
 20
43.6116
 11
87.875
 21
43.4845
  0
LINE
  8
0
 10
87.875
 20
43.4845
 11
87.6697
 21
43.3832
  0
LINE
  8
0
 10
87.6697
 20
43.3832
 11
87.4529
 21
43.3096
  0
LINE
  8
0
 10
87.4529
 20
43.3096
 11
87.2284
 21
43.265
  0
LINE
  8
0
 10
87.2284
 20
43.265
 11
87
 21
43.25
  0
LINE
  8
0
 10
87
 20
43.25
 11
86.7716
 21
43.265
  0
LINE
  8
0
 10
86.7716
 20
43.265
 11
86.5471
 21
43.3096
  0
LINE
  8
0
 10
86.5471
 20
43.3096
 11
86.3303
 21
43.3832
  0
LINE
  8
0
 10
86.3303
 20
43.3832
 11
86.125
 21
43.4845
  0
LINE
  8
0
 10
86.125
 20
43.4845
 11
85.9347
 21
43.6116
  0
LINE
  8
0
 10
85.9347
 20
43.6116
 11
85.7626
 21
43.7626
  0
LINE
  8
0
 10
85.7626
 20
43.7626
 11
85.6116
 21
43.9347
  0
LINE
  8
0
 10
85.6116
 20
43.9347
 11
85.4845
 21
44.125
  0
LINE
  8
0
 10
85.4845
 20
44.125
 11
85.3832
 21
44.3303
  0
LINE
  8
0
 10
85.3832
 20
44.3303
 11
85.3096
 21
44.5471
  0
LINE
  8
0
 10
85.3096
 20
44.5471
 11
85.265
 21
44.7716
  0
LINE
  8
0
 10
85.265
 20
44.7716
 11
85.25
 21
45
  0
LINE
  8
0
 10
86.25
 20
-26.75
 11
86.265
 21
-26.5216
  0
LINE
  8
0
 10
86.265
 20
-26.5216
 11
86.3096
 21
-26.2971
  0
LINE
  8
0
 10
86.3096
 20
-26.2971
 11
86.3832
 21
-26.0803
  0
LINE
  8
0
 10
86.3832
 20
-26.0803
 11
86.4845
 21
-25.875
  0
LINE
  8
0
 10
86.4845
 20
-25.875
 11
86.6116
 21
-25.6847
  0
LINE
  8
0
 10
86.6116
 20
-25.6847
 11
86.7626
 21
-25.5126
  0
LINE
  8
0
 10
86.7626
 20
-25.5126
 11
86.9347
 21
-25.3616
  0
LINE
  8
0
 10
86.9347
 20
-25.3616
 11
87.125
 21
-25.2345
  0
LINE
  8
0
 10
87.125
 20
-25.2345
 11
87.3303
 21
-25.1332
  0
LINE
  8
0
 10
87.3303
 20
-25.1332
 11
87.5471
 21
-25.0596
  0
LINE
  8
0
 10
87.5471
 20
-25.0596
 11
87.7716
 21
-25.015
  0
LINE
  8
0
 10
87.7716
 20
-25.015
 11
88
 21
-25
  0
LINE
  8
0
 10
88
 20
-25
 11
88.2284
 21
-25.015
  0
LINE
  8
0
 10
88.2284
 20
-25.015
 11
88.4529
 21
-25.0596
  0
LINE
  8
0
 10
88.4529
 20
-25.0596
 11
88.6697
 21
-25.1332
  0
LINE
  8
0
 10
88.6697
 20
-25.1332
 11
88.875
 21
-25.2345
  0
LINE
  8
0
 10
88.875
 20
-25.2345
 11
89.0653
 21
-25.3616
  0
LINE
  8
0
 10
89.0653
 20
-25.3616
 11
89.2374
 21
-25.5126
  0
LINE
  8
0
 10
89.2374
 20
-25.5126
 11
89.3884
 21
-25.6847
  0
LINE
  8
0
 10
89.3884
 20
-25.6847
 11
89.5155
 21
-25.875
  0
LINE
  8
0
 10
89.5155
 20
-25.875
 11
89.6168
 21
-26.0803
  0
LINE
  8
0
 10
89.6168
 20
-26.0803
 11
89.6904
 21
-26.2971
  0
LINE
  8
0
 10
89.6904
 20
-26.2971
 11
89.735
 21
-26.5216
  0
LINE
  8
0
 10
89.735
 20
-26.5216
 11
89.75
 21
-26.75
  0
LINE
  8
0
 10
89.75
 20
-26.75
 11
89.735
 21
-26.9784
  0
LINE
  8
0
 10
89.735
 20
-26.9784
 11
89.6904
 21
-27.2029
  0
LINE
  8
0
 10
89.6904
 20
-27.2029
 11
89.6168
 21
-27.4197
  0
LINE
  8
0
 10
89.6168
 20
-27.4197
 11
89.5155
 21
-27.625
  0
LINE
  8
0
 10
89.5155
 20
-27.625
 11
89.3884
 21
-27.8153
  0
LINE
  8
0
 10
89.3884
 20
-27.8153
 11
89.2374
 21
-27.9874
  0
LINE
  8
0
 10
89.2374
 20
-27.9874
 11
89.0653
 21
-28.1384
  0
LINE
  8
0
 10
89.0653
 20
-28.1384
 11
88.875
 21
-28.2655
  0
LINE
  8
0
 10
88.875
 20
-28.2655
 11
88.6697
 21
-28.3668
  0
LINE
  8
0
 10
88.6697
 20
-28.3668
 11
88.4529
 21
-28.4404
  0
LINE
  8
0
 10
88.4529
 20
-28.4404
 11
88.2284
 21
-28.485
  0
LINE
  8
0
 10
88.2284
 20
-28.485
 11
88
 21
-28.5
  0
LINE
  8
0
 10
88
 20
-28.5
 11
87.7716
 21
-28.485
  0
LINE
  8
0
 10
87.7716
 20
-28.485
 11
87.5471
 21
-28.4404
  0
LINE
  8
0
 10
87.5471
 20
-28.4404
 11
87.3303
 21
-28.3668
  0
LINE
  8
0
 10
87.3303
 20
-28.3668
 11
87.125
 21
-28.2655
  0
LINE
  8
0
 10
87.125
 20
-28.2655
 11
86.9347
 21
-28.1384
  0
LINE
  8
0
 10
86.9347
 20
-28.1384
 11
86.7626
 21
-27.9874
  0
LINE
  8
0
 10
86.7626
 20
-27.9874
 11
86.6116
 21
-27.8153
  0
LINE
  8
0
 10
86.6116
 20
-27.8153
 11
86.4845
 21
-27.625
  0
LINE
  8
0
 10
86.4845
 20
-27.625
 11
86.3832
 21
-27.4197
  0
LINE
  8
0
 10
86.3832
 20
-27.4197
 11
86.3096
 21
-27.2029
  0
LINE
  8
0
 10
86.3096
 20
-27.2029
 11
86.265
 21
-26.9784
  0
LINE
  8
0
 10
86.265
 20
-26.9784
 11
86.25
 21
-26.75
  0
LINE
  8
0
 10
86.25
 20
22.25
 11
86.265
 21
22.4784
  0
LINE
  8
0
 10
86.265
 20
22.4784
 11
86.3096
 21
22.7029
  0
LINE
  8
0
 10
86.3096
 20
22.7029
 11
86.3832
 21
22.9197
  0
LINE
  8
0
 10
86.3832
 20
22.9197
 11
86.4845
 21
23.125
  0
LINE
  8
0
 10
86.4845
 20
23.125
 11
86.6116
 21
23.3153
  0
LINE
  8
0
 10
86.6116
 20
23.3153
 11
86.7626
 21
23.4874
  0
LINE
  8
0
 10
86.7626
 20
23.4874
 11
86.9347
 21
23.6384
  0
LINE
  8
0
 10
86.9347
 20
23.6384
 11
87.125
 21
23.7655
  0
LINE
  8
0
 10
87.125
 20
23.7655
 11
87.3303
 21
23.8668
  0
LINE
  8
0
 10
87.3303
 20
23.8668
 11
87.5471
 21
23.9404
  0
LINE
  8
0
 10
87.5471
 20
23.9404
 11
87.7716
 21
23.985
  0
LINE
  8
0
 10
87.7716
 20
23.985
 11
88
 21
24
  0
LINE
  8
0
 10
88
 20
24
 11
88.2284
 21
23.985
  0
LINE
  8
0
 10
88.2284
 20
23.985
 11
88.4529
 21
23.9404
  0
LINE
  8
0
 10
88.4529
 20
23.9404
 11
88.6697
 21
23.8668
  0
LINE
  8
0
 10
88.6697
 20
23.8668
 11
88.875
 21
23.7655
  0
LINE
  8
0
 10
88.875
 20
23.7655
 11
89.0653
 21
23.6384
  0
LINE
  8
0
 10
89.0653
 20
23.6384
 11
89.2374
 21
23.4874
  0
LINE
  8
0
 10
89.2374
 20
23.4874
 11
89.3884
 21
23.3153
  0
LINE
  8
0
 10
89.3884
 20
23.3153
 11
89.5155
 21
23.125
  0
LINE
  8
0
 10
89.5155
 20
23.125
 11
89.6168
 21
22.9197
  0
LINE
  8
0
 10
89.6168
 20
22.9197
 11
89.6904
 21
22.7029
  0
LINE
  8
0
 10
89.6904
 20
22.7029
 11
89.735
 21
22.4784
  0
LINE
  8
0
 10
89.735
 20
22.4784
 11
89.75
 21
22.25
  0
LINE
  8
0
 10
89.75
 20
22.25
 11
89.735
 21
22.0216
  0
LINE
  8
0
 10
89.735
 20
22.0216
 11
89.6904
 21
21.7971
  0
LINE
  8
0
 10
89.6904
 20
21.7971
 11
89.6168
 21
21.5803
  0
LINE
  8
0
 10
89.6168
 20
21.5803
 11
89.5155
 21
21.375
  0
LINE
  8
0
 10
89.5155
 20
21.375
 11
89.3884
 21
21.1847
  0
LINE
  8
0
 10
89.3884
 20
21.1847
 11
89.2374
 21
21.0126
  0
LINE
  8
0
 10
89.2374
 20
21.0126
 11
89.0653
 21
20.8616
  0
LINE
  8
0
 10
89.0653
 20
20.8616
 11
88.875
 21
20.7345
  0
LINE
  8
0
 10
88.875
 20
20.7345
 11
88.6697
 21
20.6332
  0
LINE
  8
0
 10
88.6697
 20
20.6332
 11
88.4529
 21
20.5596
  0
LINE
  8
0
 10
88.4529
 20
20.5596
 11
88.2284
 21
20.515
  0
LINE
  8
0
 10
88.2284
 20
20.515
 11
88
 21
20.5
  0
LINE
  8
0
 10
88
 20
20.5
 11
87.7716
 21
20.515
  0
LINE
  8
0
 10
87.7716
 20
20.515
 11
87.5471
 21
20.5596
  0
LINE
  8
0
 10
87.5471
 20
20.5596
 11
87.3303
 21
20.6332
  0
LINE
  8
0
 10
87.3303
 20
20.6332
 11
87.125
 21
20.7345
  0
LINE
  8
0
 10
87.125
 20
20.7345
 11
86.9347
 21
20.8616
  0
LINE
  8
0
 10
86.9347
 20
20.8616
 11
86.7626
 21
21.0126
  0
LINE
  8
0
 10
86.7626
 20
21.0126
 11
86.6116
 21
21.1847
  0
LINE
  8
0
 10
86.6116
 20
21.1847
 11
86.4845
 21
21.375
  0
LINE
  8
0
 10
86.4845
 20
21.375
 11
86.3832
 21
21.5803
  0
LINE
  8
0
 10
86.3832
 20
21.5803
 11
86.3096
 21
21.7971
  0
LINE
  8
0
 10
86.3096
 20
21.7971
 11
86.265
 21
22.0216
  0
LINE
  8
0
 10
86.265
 20
22.0216
 11
86.25
 21
22.25
  0
LINE
  8
0
 10
94.25
 20
0
 11
94.265
 21
0.22842
  0
LINE
  8
0
 10
94.265
 20
0.22842
 11
94.3096
 21
0.452933
  0
LINE
  8
0
 10
94.3096
 20
0.452933
 11
94.3832
 21
0.669696
  0
LINE
  8
0
 10
94.3832
 20
0.669696
 11
94.4845
 21
0.875
  0
LINE
  8
0
 10
94.4845
 20
0.875
 11
94.6116
 21
1.06533
  0
LINE
  8
0
 10
94.6116
 20
1.06533
 11
94.7626
 21
1.23744
  0
LINE
  8
0
 10
94.7626
 20
1.23744
 11
94.9347
 21
1.38837
  0
LINE
  8
0
 10
94.9347
 20
1.38837
 11
95.125
 21
1.51554
  0
LINE
  8
0
 10
95.125
 20
1.51554
 11
95.3303
 21
1.61679
  0
LINE
  8
0
 10
95.3303
 20
1.61679
 11
95.5471
 21
1.69037
  0
LINE
  8
0
 10
95.5471
 20
1.69037
 11
95.7716
 21
1.73503
  0
LINE
  8
0
 10
95.7716
 20
1.73503
 11
96
 21
1.75
  0
LINE
  8
0
 10
96
 20
1.75
 11
96.2284
 21
1.73503
  0
LINE
  8
0
 10
96.2284
 20
1.73503
 11
96.4529
 21
1.69037
  0
LINE
  8
0
 10
96.4529
 20
1.69037
 11
96.6697
 21
1.61679
  0
LINE
  8
0
 10
96.6697
 20
1.61679
 11
96.875
 21
1.51554
  0
LINE
  8
0
 10
96.875
 20
1.51554
 11
97.0653
 21
1.38837
  0
LINE
  8
0
 10
97.0653
 20
1.38837
 11
97.2374
 21
1.23744
  0
LINE
  8
0
 10
97.2374
 20
1.23744
 11
97.3884
 21
1.06533
  0
LINE
  8
0
 10
97.3884
 20
1.06533
 11
97.5155
 21
0.875
  0
LINE
  8
0
 10
97.5155
 20
0.875
 11
97.6168
 21
0.669696
  0
LINE
  8
0
 10
97.6168
 20
0.669696
 11
97.6904
 21
0.452933
  0
LINE
  8
0
 10
97.6904
 20
0.452933
 11
97.735
 21
0.22842
  0
LINE
  8
0
 10
97.735
 20
0.22842
 11
97.75
 21
0
  0
LINE
  8
0
 10
97.75
 20
0
 11
97.735
 21
-0.22842
  0
LINE
  8
0
 10
97.735
 20
-0.22842
 11
97.6904
 21
-0.452933
  0
LINE
  8
0
 10
97.6904
 20
-0.452933
 11
97.6168
 21
-0.669696
  0
LINE
  8
0
 10
97.6168
 20
-0.669696
 11
97.5155
 21
-0.875
  0
LINE
  8
0
 10
97.5155
 20
-0.875
 11
97.3884
 21
-1.06533
  0
LINE
  8
0
 10
97.3884
 20
-1.06533
 11
97.2374
 21
-1.23744
  0
LINE
  8
0
 10
97.2374
 20
-1.23744
 11
97.0653
 21
-1.38837
  0
LINE
  8
0
 10
97.0653
 20
-1.38837
 11
96.875
 21
-1.51554
  0
LINE
  8
0
 10
96.875
 20
-1.51554
 11
96.6697
 21
-1.61679
  0
LINE
  8
0
 10
96.6697
 20
-1.61679
 11
96.4529
 21
-1.69037
  0
LINE
  8
0
 10
96.4529
 20
-1.69037
 11
96.2284
 21
-1.73503
  0
LINE
  8
0
 10
96.2284
 20
-1.73503
 11
96
 21
-1.75
  0
LINE
  8
0
 10
96
 20
-1.75
 11
95.7716
 21
-1.73503
  0
LINE
  8
0
 10
95.7716
 20
-1.73503
 11
95.5471
 21
-1.69037
  0
LINE
  8
0
 10
95.5471
 20
-1.69037
 11
95.3303
 21
-1.61679
  0
LINE
  8
0
 10
95.3303
 20
-1.61679
 11
95.125
 21
-1.51554
  0
LINE
  8
0
 10
95.125
 20
-1.51554
 11
94.9347
 21
-1.38837
  0
LINE
  8
0
 10
94.9347
 20
-1.38837
 11
94.7626
 21
-1.23744
  0
LINE
  8
0
 10
94.7626
 20
-1.23744
 11
94.6116
 21
-1.06533
  0
LINE
  8
0
 10
94.6116
 20
-1.06533
 11
94.4845
 21
-0.875
  0
LINE
  8
0
 10
94.4845
 20
-0.875
 11
94.3832
 21
-0.669696
  0
LINE
  8
0
 10
94.3832
 20
-0.669696
 11
94.3096
 21
-0.452933
  0
LINE
  8
0
 10
94.3096
 20
-0.452933
 11
94.265
 21
-0.22842
  0
LINE
  8
0
 10
94.265
 20
-0.22842
 11
94.25
 21
0
  0
ENDSEC
  0
SECTION
  2
OBJECTS
  0
DICTIONARY
  0
ENDSEC
  0
EOF
