solid OpenSCAD_Model
  facet normal -0.946932 -0.321433 0
    outer loop
      vertex -101.627 -42.0952 1.5
      vertex -106.252 -28.4701 9
      vertex -106.252 -28.4701 1.5
    endloop
  endfacet
  facet normal -0.946932 -0.321433 0
    outer loop
      vertex -106.252 -28.4701 9
      vertex -101.627 -42.0952 1.5
      vertex -101.627 -42.0952 9
    endloop
  endfacet
  facet normal -0.321348 -0.946961 0
    outer loop
      vertex -40 -102.338 1.5
      vertex -42.0952 -101.627 9
      vertex -42.0952 -101.627 1.5
    endloop
  endfacet
  facet normal -0.321342 -0.946963 2.14104e-06
    outer loop
      vertex -42.0952 -101.627 9
      vertex -40 -102.338 1.5
      vertex -37 -103.356 9
    endloop
  endfacet
  facet normal -0.321337 -0.946965 0
    outer loop
      vertex -37 -103.356 0
      vertex -40 -102.338 1.5
      vertex -40 -102.338 0
    endloop
  endfacet
  facet normal -0.321337 -0.946965 0
    outer loop
      vertex -40 -102.338 1.5
      vertex -37 -103.356 0
      vertex -37 -103.356 9
    endloop
  endfacet
  facet normal -0.896866 -0.442303 0
    outer loop
      vertex -95.2628 -55 1.5
      vertex -101.627 -42.0952 9
      vertex -101.627 -42.0952 1.5
    endloop
  endfacet
  facet normal -0.896866 -0.442303 0
    outer loop
      vertex -101.627 -42.0952 9
      vertex -95.2628 -55 1.5
      vertex -95.2628 -55 9
    endloop
  endfacet
  facet normal -0.751834 -0.659352 0
    outer loop
      vertex -77.7817 -77.7817 1.5
      vertex -87.2689 -66.9638 9
      vertex -87.2689 -66.9638 1.5
    endloop
  endfacet
  facet normal -0.751834 -0.659352 0
    outer loop
      vertex -87.2689 -66.9638 9
      vertex -77.7817 -77.7817 1.5
      vertex -77.7817 -77.7817 9
    endloop
  endfacet
  facet normal 0 0 -1
    outer loop
      vertex -43.2432 -104.398 0
      vertex -40 -102.338 0
      vertex -40 -105.499 0
    endloop
  endfacet
  facet normal -0 0 -1
    outer loop
      vertex -40 -102.338 0
      vertex -43.2432 -104.398 0
      vertex -41.5212 -100.241 0
    endloop
  endfacet
  facet normal 0 0 -1
    outer loop
      vertex -43.2432 -104.398 0
      vertex -54.25 -93.9638 0
      vertex -41.5212 -100.241 0
    endloop
  endfacet
  facet normal 0 0 -1
    outer loop
      vertex -56.5 -97.8609 0
      vertex -54.25 -93.9638 0
      vertex -43.2432 -104.398 0
    endloop
  endfacet
  facet normal 0 0 -1
    outer loop
      vertex -56.5 -97.8609 0
      vertex -66.0506 -86.0788 0
      vertex -54.25 -93.9638 0
    endloop
  endfacet
  facet normal 0 0 -1
    outer loop
      vertex -68.79 -89.6489 0
      vertex -66.0506 -86.0788 0
      vertex -56.5 -97.8609 0
    endloop
  endfacet
  facet normal 0 0 -1
    outer loop
      vertex -68.79 -89.6489 0
      vertex -76.7211 -76.7211 0
      vertex -66.0506 -86.0788 0
    endloop
  endfacet
  facet normal 0 0 -1
    outer loop
      vertex -79.9031 -79.9031 0
      vertex -76.7211 -76.7211 0
      vertex -68.79 -89.6489 0
    endloop
  endfacet
  facet normal 0 0 -1
    outer loop
      vertex -79.9031 -79.9031 0
      vertex -86.0788 -66.0506 0
      vertex -76.7211 -76.7211 0
    endloop
  endfacet
  facet normal 0 0 -1
    outer loop
      vertex -89.6489 -68.79 0
      vertex -86.0788 -66.0506 0
      vertex -79.9031 -79.9031 0
    endloop
  endfacet
  facet normal 0 0 -1
    outer loop
      vertex -89.6489 -68.79 0
      vertex -93.9638 -54.25 0
      vertex -86.0788 -66.0506 0
    endloop
  endfacet
  facet normal 0 0 -1
    outer loop
      vertex -97.8609 -56.5 0
      vertex -93.9638 -54.25 0
      vertex -89.6489 -68.79 0
    endloop
  endfacet
  facet normal 0 0 -1
    outer loop
      vertex -97.8609 -56.5 0
      vertex -100.241 -41.5212 0
      vertex -93.9638 -54.25 0
    endloop
  endfacet
  facet normal 0 0 -1
    outer loop
      vertex -104.398 -43.2432 0
      vertex -100.241 -41.5212 0
      vertex -97.8609 -56.5 0
    endloop
  endfacet
  facet normal 0 0 -1
    outer loop
      vertex -104.398 -43.2432 0
      vertex -104.803 -28.0819 0
      vertex -100.241 -41.5212 0
    endloop
  endfacet
  facet normal 0 0 -1
    outer loop
      vertex -109.15 -29.2466 0
      vertex -104.803 -28.0819 0
      vertex -104.398 -43.2432 0
    endloop
  endfacet
  facet normal -0 0 -1
    outer loop
      vertex -104.803 -28.0819 0
      vertex -109.15 -29.2466 0
      vertex -107.572 -14.1621 0
    endloop
  endfacet
  facet normal 0 0 -1
    outer loop
      vertex -112.033 -14.7495 0
      vertex -107.572 -14.1621 0
      vertex -109.15 -29.2466 0
    endloop
  endfacet
  facet normal -0 0 -1
    outer loop
      vertex -107.572 -14.1621 0
      vertex -112.033 -14.7495 0
      vertex -108.172 -5 0
    endloop
  endfacet
  facet normal -0 0 -1
    outer loop
      vertex -108.172 -5 0
      vertex -112.033 -14.7495 0
      vertex -112.672 -5 0
    endloop
  endfacet
  facet normal 0 0 -1
    outer loop
      vertex -40 -102.338 0
      vertex -37 -101.776 0
      vertex -37 -103.356 0
    endloop
  endfacet
  facet normal -0 0 -1
    outer loop
      vertex -37 -101.776 0
      vertex -40 -102.338 0
      vertex -41.5212 -100.241 0
    endloop
  endfacet
  facet normal 0 0 -1
    outer loop
      vertex -80.3356 -59.3791 9
      vertex -71.7202 -52.2594 9
      vertex -68.6729 -54.1865 9
    endloop
  endfacet
  facet normal 0 0 -1
    outer loop
      vertex -71.7202 -52.2594 9
      vertex -80.3356 -59.3791 9
      vertex -82.0268 -56.8481 9
    endloop
  endfacet
  facet normal 0 0 -1
    outer loop
      vertex -71.7202 -52.2594 9
      vertex -76.8076 -35.9156 9
      vertex -68.6729 -54.1865 9
    endloop
  endfacet
  facet normal 0 0 -1
    outer loop
      vertex -71.7202 -52.2594 9
      vertex -78.4346 -32.2614 9
      vertex -76.8076 -35.9156 9
    endloop
  endfacet
  facet normal 0 0 -1
    outer loop
      vertex -87.1762 -17.5446 9
      vertex -78.4346 -32.2614 9
      vertex -71.7202 -52.2594 9
    endloop
  endfacet
  facet normal 0 0 -1
    outer loop
      vertex -78.4346 -32.2614 9
      vertex -87.1762 -17.5446 9
      vertex -86.5693 -13.9905 9
    endloop
  endfacet
  facet normal 0 0 -1
    outer loop
      vertex -97.95 -19.0575 9
      vertex -87.1762 -17.5446 9
      vertex -97.35 -22.0743 9
    endloop
  endfacet
  facet normal -0 0 -1
    outer loop
      vertex -87.1762 -17.5446 9
      vertex -97.95 -19.0575 9
      vertex -86.5693 -13.9905 9
    endloop
  endfacet
  facet normal 0 0 -1
    outer loop
      vertex -76.8076 -35.9156 9
      vertex -64.7314 -26.1604 9
      vertex -63.1045 -29.8146 9
    endloop
  endfacet
  facet normal 0 0 -1
    outer loop
      vertex -64.7314 -26.1604 9
      vertex -76.8076 -35.9156 9
      vertex -78.4346 -32.2614 9
    endloop
  endfacet
  facet normal -0 0 1
    outer loop
      vertex -109.059 -14.3579 9
      vertex -97.95 -19.0575 9
      vertex -99.1445 -13.0526 9
    endloop
  endfacet
  facet normal 0 0 1
    outer loop
      vertex -109.059 -14.3579 9
      vertex -99.1445 -13.0526 9
      vertex -99.6723 -5 9
    endloop
  endfacet
  facet normal 0 0 1
    outer loop
      vertex -97.95 -19.0575 9
      vertex -109.059 -14.3579 9
      vertex -106.667 -22.9387 9
    endloop
  endfacet
  facet normal 0 -0 1
    outer loop
      vertex -109.059 -14.3579 9
      vertex -99.6723 -5 9
      vertex -109.672 -5 9
    endloop
  endfacet
  facet normal 0 0 1
    outer loop
      vertex -42.0952 -101.627 9
      vertex -37 -92.8185 9
      vertex -38.2683 -92.388 9
    endloop
  endfacet
  facet normal 0 0 1
    outer loop
      vertex -37 -92.8185 9
      vertex -42.0952 -101.627 9
      vertex -37 -103.356 9
    endloop
  endfacet
  facet normal 0 0 1
    outer loop
      vertex -50 -86.6025 9
      vertex -42.0952 -101.627 9
      vertex -38.2683 -92.388 9
    endloop
  endfacet
  facet normal 0 0 1
    outer loop
      vertex -50 -86.6025 9
      vertex -55 -95.2628 9
      vertex -42.0952 -101.627 9
    endloop
  endfacet
  facet normal 0 0 1
    outer loop
      vertex -60.8761 -79.3353 9
      vertex -55 -95.2628 9
      vertex -50 -86.6025 9
    endloop
  endfacet
  facet normal 0 0 1
    outer loop
      vertex -60.8761 -79.3353 9
      vertex -66.9638 -87.2689 9
      vertex -55 -95.2628 9
    endloop
  endfacet
  facet normal 0 0 1
    outer loop
      vertex -70.7107 -70.7107 9
      vertex -66.9638 -87.2689 9
      vertex -60.8761 -79.3353 9
    endloop
  endfacet
  facet normal 0 0 1
    outer loop
      vertex -70.7107 -70.7107 9
      vertex -77.7817 -77.7817 9
      vertex -66.9638 -87.2689 9
    endloop
  endfacet
  facet normal 0 0 1
    outer loop
      vertex -79.3353 -60.8761 9
      vertex -77.7817 -77.7817 9
      vertex -70.7107 -70.7107 9
    endloop
  endfacet
  facet normal 0 0 1
    outer loop
      vertex -88.7709 -63.1347 9
      vertex -79.3353 -60.8761 9
      vertex -80.3356 -59.3791 9
    endloop
  endfacet
  facet normal 0 0 1
    outer loop
      vertex -79.3353 -60.8761 9
      vertex -87.2689 -66.9638 9
      vertex -77.7817 -77.7817 9
    endloop
  endfacet
  facet normal 0 0 1
    outer loop
      vertex -79.3353 -60.8761 9
      vertex -88.7709 -63.1347 9
      vertex -87.2689 -66.9638 9
    endloop
  endfacet
  facet normal 0 0 1
    outer loop
      vertex -88.7709 -63.1347 9
      vertex -95.2628 -55 9
      vertex -87.2689 -66.9638 9
    endloop
  endfacet
  facet normal 0 0 1
    outer loop
      vertex -88.7709 -63.1347 9
      vertex -101.627 -42.0952 9
      vertex -95.2628 -55 9
    endloop
  endfacet
  facet normal 0 0 1
    outer loop
      vertex -106.667 -22.9387 9
      vertex -101.627 -42.0952 9
      vertex -88.7709 -63.1347 9
    endloop
  endfacet
  facet normal 0 0 1
    outer loop
      vertex -101.627 -42.0952 9
      vertex -106.667 -22.9387 9
      vertex -106.252 -28.4701 9
    endloop
  endfacet
  facet normal 0 0 1
    outer loop
      vertex -106.252 -28.4701 9
      vertex -106.667 -22.9387 9
      vertex -109.059 -14.3579 9
    endloop
  endfacet
  facet normal 0 0 1
    outer loop
      vertex -86.6025 -50 9
      vertex -87.2505 -59.1739 9
      vertex -82.0268 -56.8481 9
    endloop
  endfacet
  facet normal 0 0 1
    outer loop
      vertex -92.388 -38.2683 9
      vertex -87.2505 -59.1739 9
      vertex -86.6025 -50 9
    endloop
  endfacet
  facet normal 0 0 1
    outer loop
      vertex -102.706 -24.4592 9
      vertex -92.388 -38.2683 9
      vertex -96.5926 -25.8819 9
    endloop
  endfacet
  facet normal 0 0 1
    outer loop
      vertex -92.388 -38.2683 9
      vertex -102.706 -24.4592 9
      vertex -87.2505 -59.1739 9
    endloop
  endfacet
  facet normal -0 0 1
    outer loop
      vertex -102.706 -24.4592 9
      vertex -96.5926 -25.8819 9
      vertex -97.35 -22.0743 9
    endloop
  endfacet
  facet normal -0.442303 -0.896866 0
    outer loop
      vertex -55 -95.2628 1.5
      vertex -42.0952 -101.627 9
      vertex -55 -95.2628 9
    endloop
  endfacet
  facet normal -0.442303 -0.896866 -0
    outer loop
      vertex -42.0952 -101.627 9
      vertex -55 -95.2628 1.5
      vertex -42.0952 -101.627 1.5
    endloop
  endfacet
  facet normal -0.831471 -0.555568 0
    outer loop
      vertex -87.2689 -66.9638 1.5
      vertex -95.2628 -55 9
      vertex -95.2628 -55 1.5
    endloop
  endfacet
  facet normal -0.831471 -0.555568 0
    outer loop
      vertex -95.2628 -55 9
      vertex -87.2689 -66.9638 1.5
      vertex -87.2689 -66.9638 9
    endloop
  endfacet
  facet normal -0.980786 -0.195084 0
    outer loop
      vertex -106.252 -28.4701 1.5
      vertex -109.059 -14.3579 9
      vertex -109.059 -14.3579 1.5
    endloop
  endfacet
  facet normal -0.980786 -0.195084 0
    outer loop
      vertex -109.059 -14.3579 9
      vertex -106.252 -28.4701 1.5
      vertex -106.252 -28.4701 9
    endloop
  endfacet
  facet normal -0.659352 -0.751834 0
    outer loop
      vertex -77.7817 -77.7817 1.5
      vertex -66.9638 -87.2689 9
      vertex -77.7817 -77.7817 9
    endloop
  endfacet
  facet normal -0.659352 -0.751834 -0
    outer loop
      vertex -66.9638 -87.2689 9
      vertex -77.7817 -77.7817 1.5
      vertex -66.9638 -87.2689 1.5
    endloop
  endfacet
  facet normal -0.997861 -0.0653661 0
    outer loop
      vertex -109.059 -14.3579 1.5
      vertex -109.672 -5 9
      vertex -109.672 -5 1.5
    endloop
  endfacet
  facet normal -0.997861 -0.0653661 0
    outer loop
      vertex -109.672 -5 9
      vertex -109.059 -14.3579 1.5
      vertex -109.059 -14.3579 9
    endloop
  endfacet
  facet normal -0.555568 -0.831471 0
    outer loop
      vertex -66.9638 -87.2689 1.5
      vertex -55 -95.2628 9
      vertex -66.9638 -87.2689 9
    endloop
  endfacet
  facet normal -0.555568 -0.831471 -0
    outer loop
      vertex -55 -95.2628 9
      vertex -66.9638 -87.2689 1.5
      vertex -55 -95.2628 1.5
    endloop
  endfacet
  facet normal 0 0 -1
    outer loop
      vertex -41.5212 -100.241 7.5
      vertex -37 -92.8185 7.5
      vertex -37 -101.776 7.5
    endloop
  endfacet
  facet normal -0 0 -1
    outer loop
      vertex -37 -92.8185 7.5
      vertex -41.5212 -100.241 7.5
      vertex -38.2683 -92.388 7.5
    endloop
  endfacet
  facet normal 0 0 -1
    outer loop
      vertex -41.5212 -100.241 7.5
      vertex -50 -86.6025 7.5
      vertex -38.2683 -92.388 7.5
    endloop
  endfacet
  facet normal 0 0 -1
    outer loop
      vertex -54.25 -93.9638 7.5
      vertex -50 -86.6025 7.5
      vertex -41.5212 -100.241 7.5
    endloop
  endfacet
  facet normal 0 0 -1
    outer loop
      vertex -54.25 -93.9638 7.5
      vertex -60.8761 -79.3353 7.5
      vertex -50 -86.6025 7.5
    endloop
  endfacet
  facet normal 0 0 -1
    outer loop
      vertex -66.0506 -86.0788 7.5
      vertex -60.8761 -79.3353 7.5
      vertex -54.25 -93.9638 7.5
    endloop
  endfacet
  facet normal 0 0 -1
    outer loop
      vertex -66.0506 -86.0788 7.5
      vertex -70.7107 -70.7107 7.5
      vertex -60.8761 -79.3353 7.5
    endloop
  endfacet
  facet normal 0 0 -1
    outer loop
      vertex -76.7211 -76.7211 7.5
      vertex -70.7107 -70.7107 7.5
      vertex -66.0506 -86.0788 7.5
    endloop
  endfacet
  facet normal 0 0 -1
    outer loop
      vertex -76.7211 -76.7211 7.5
      vertex -79.3353 -60.8761 7.5
      vertex -70.7107 -70.7107 7.5
    endloop
  endfacet
  facet normal 0 0 -1
    outer loop
      vertex -86.0788 -66.0506 7.5
      vertex -79.3353 -60.8761 7.5
      vertex -76.7211 -76.7211 7.5
    endloop
  endfacet
  facet normal 0 0 -1
    outer loop
      vertex -86.0788 -66.0506 7.5
      vertex -86.6025 -50 7.5
      vertex -79.3353 -60.8761 7.5
    endloop
  endfacet
  facet normal 0 0 -1
    outer loop
      vertex -93.9638 -54.25 7.5
      vertex -86.6025 -50 7.5
      vertex -86.0788 -66.0506 7.5
    endloop
  endfacet
  facet normal -0 0 -1
    outer loop
      vertex -86.6025 -50 7.5
      vertex -93.9638 -54.25 7.5
      vertex -92.388 -38.2683 7.5
    endloop
  endfacet
  facet normal 0 0 -1
    outer loop
      vertex -100.241 -41.5212 7.5
      vertex -92.388 -38.2683 7.5
      vertex -93.9638 -54.25 7.5
    endloop
  endfacet
  facet normal -0 0 -1
    outer loop
      vertex -92.388 -38.2683 7.5
      vertex -100.241 -41.5212 7.5
      vertex -96.5926 -25.8819 7.5
    endloop
  endfacet
  facet normal 0 0 -1
    outer loop
      vertex -104.803 -28.0819 7.5
      vertex -96.5926 -25.8819 7.5
      vertex -100.241 -41.5212 7.5
    endloop
  endfacet
  facet normal -0 0 -1
    outer loop
      vertex -96.5926 -25.8819 7.5
      vertex -104.803 -28.0819 7.5
      vertex -99.1445 -13.0526 7.5
    endloop
  endfacet
  facet normal 0 0 -1
    outer loop
      vertex -107.572 -14.1621 7.5
      vertex -99.1445 -13.0526 7.5
      vertex -104.803 -28.0819 7.5
    endloop
  endfacet
  facet normal -0 0 -1
    outer loop
      vertex -99.1445 -13.0526 7.5
      vertex -107.572 -14.1621 7.5
      vertex -99.6723 -5 7.5
    endloop
  endfacet
  facet normal -0 0 -1
    outer loop
      vertex -99.6723 -5 7.5
      vertex -107.572 -14.1621 7.5
      vertex -108.172 -5 7.5
    endloop
  endfacet
  facet normal 0.946931 0.321438 0
    outer loop
      vertex -100.241 -41.5212 7.5
      vertex -104.803 -28.0819 0
      vertex -104.803 -28.0819 7.5
    endloop
  endfacet
  facet normal 0.946931 0.321438 0
    outer loop
      vertex -104.803 -28.0819 0
      vertex -100.241 -41.5212 7.5
      vertex -100.241 -41.5212 0
    endloop
  endfacet
  facet normal 0.442292 0.896871 -0
    outer loop
      vertex -41.5212 -100.241 0
      vertex -54.25 -93.9638 7.5
      vertex -41.5212 -100.241 7.5
    endloop
  endfacet
  facet normal 0.442292 0.896871 0
    outer loop
      vertex -54.25 -93.9638 7.5
      vertex -41.5212 -100.241 0
      vertex -54.25 -93.9638 0
    endloop
  endfacet
  facet normal 0.831467 0.555575 0
    outer loop
      vertex -86.0788 -66.0506 7.5
      vertex -93.9638 -54.25 0
      vertex -93.9638 -54.25 7.5
    endloop
  endfacet
  facet normal 0.831467 0.555575 0
    outer loop
      vertex -93.9638 -54.25 0
      vertex -86.0788 -66.0506 7.5
      vertex -86.0788 -66.0506 0
    endloop
  endfacet
  facet normal 0.896871 0.442292 0
    outer loop
      vertex -93.9638 -54.25 7.5
      vertex -100.241 -41.5212 0
      vertex -100.241 -41.5212 7.5
    endloop
  endfacet
  facet normal 0.896871 0.442292 0
    outer loop
      vertex -100.241 -41.5212 0
      vertex -93.9638 -54.25 7.5
      vertex -93.9638 -54.25 0
    endloop
  endfacet
  facet normal 0.751843 0.659343 0
    outer loop
      vertex -76.7211 -76.7211 7.5
      vertex -86.0788 -66.0506 0
      vertex -86.0788 -66.0506 7.5
    endloop
  endfacet
  facet normal 0.751843 0.659343 0
    outer loop
      vertex -86.0788 -66.0506 0
      vertex -76.7211 -76.7211 7.5
      vertex -76.7211 -76.7211 0
    endloop
  endfacet
  facet normal 0.980783 0.195102 0
    outer loop
      vertex -104.803 -28.0819 7.5
      vertex -107.572 -14.1621 0
      vertex -107.572 -14.1621 7.5
    endloop
  endfacet
  facet normal 0.980783 0.195102 0
    outer loop
      vertex -107.572 -14.1621 0
      vertex -104.803 -28.0819 7.5
      vertex -104.803 -28.0819 0
    endloop
  endfacet
  facet normal 0.659343 0.751843 -0
    outer loop
      vertex -66.0506 -86.0788 0
      vertex -76.7211 -76.7211 7.5
      vertex -66.0506 -86.0788 7.5
    endloop
  endfacet
  facet normal 0.659343 0.751843 0
    outer loop
      vertex -76.7211 -76.7211 7.5
      vertex -66.0506 -86.0788 0
      vertex -76.7211 -76.7211 0
    endloop
  endfacet
  facet normal 0.321488 0.946914 -0
    outer loop
      vertex -37 -101.776 0
      vertex -41.5212 -100.241 7.5
      vertex -37 -101.776 7.5
    endloop
  endfacet
  facet normal 0.321488 0.946914 0
    outer loop
      vertex -41.5212 -100.241 7.5
      vertex -37 -101.776 0
      vertex -41.5212 -100.241 0
    endloop
  endfacet
  facet normal 0.997863 0.0653472 0
    outer loop
      vertex -107.572 -14.1621 7.5
      vertex -108.172 -5 0
      vertex -108.172 -5 7.5
    endloop
  endfacet
  facet normal 0.997863 0.0653472 0
    outer loop
      vertex -108.172 -5 0
      vertex -107.572 -14.1621 7.5
      vertex -107.572 -14.1621 0
    endloop
  endfacet
  facet normal 0.555575 0.831467 -0
    outer loop
      vertex -54.25 -93.9638 0
      vertex -66.0506 -86.0788 7.5
      vertex -54.25 -93.9638 7.5
    endloop
  endfacet
  facet normal 0.555575 0.831467 0
    outer loop
      vertex -66.0506 -86.0788 7.5
      vertex -54.25 -93.9638 0
      vertex -66.0506 -86.0788 0
    endloop
  endfacet
  facet normal 0.659341 0.751844 -0
    outer loop
      vertex -60.8761 -79.3353 7.5
      vertex -70.7107 -70.7107 9
      vertex -60.8761 -79.3353 9
    endloop
  endfacet
  facet normal 0.659341 0.751844 0
    outer loop
      vertex -70.7107 -70.7107 9
      vertex -60.8761 -79.3353 7.5
      vertex -70.7107 -70.7107 7.5
    endloop
  endfacet
  facet normal 0.997859 0.0654037 0
    outer loop
      vertex -99.1445 -13.0526 9
      vertex -99.6723 -5 7.5
      vertex -99.6723 -5 9
    endloop
  endfacet
  facet normal 0.997859 0.0654037 0
    outer loop
      vertex -99.6723 -5 7.5
      vertex -99.1445 -13.0526 9
      vertex -99.1445 -13.0526 7.5
    endloop
  endfacet
  facet normal 0.321419 0.946937 -0
    outer loop
      vertex -37 -92.8185 7.5
      vertex -38.2683 -92.388 9
      vertex -37 -92.8185 9
    endloop
  endfacet
  facet normal 0.321419 0.946937 0
    outer loop
      vertex -38.2683 -92.388 9
      vertex -37 -92.8185 7.5
      vertex -38.2683 -92.388 7.5
    endloop
  endfacet
  facet normal 0.831473 0.555566 0
    outer loop
      vertex -82.0268 -56.8481 9
      vertex -86.6025 -50 7.5
      vertex -86.6025 -50 9
    endloop
  endfacet
  facet normal 0.831464 0.555579 7.20536e-06
    outer loop
      vertex -79.3353 -60.8761 7.5
      vertex -82.0268 -56.8481 9
      vertex -80.3356 -59.3791 9
    endloop
  endfacet
  facet normal 0.83146 0.555584 -0
    outer loop
      vertex -79.3353 -60.8761 7.5
      vertex -80.3356 -59.3791 9
      vertex -79.3353 -60.8761 9
    endloop
  endfacet
  facet normal 0.831469 0.555571 3.77939e-05
    outer loop
      vertex -82.0268 -56.8481 9
      vertex -79.3353 -60.8761 7.5
      vertex -86.6025 -50 7.5
    endloop
  endfacet
  facet normal 0.946931 0.321438 0
    outer loop
      vertex -92.388 -38.2683 9
      vertex -96.5926 -25.8819 7.5
      vertex -96.5926 -25.8819 9
    endloop
  endfacet
  facet normal 0.946931 0.321438 0
    outer loop
      vertex -96.5926 -25.8819 7.5
      vertex -92.388 -38.2683 9
      vertex -92.388 -38.2683 7.5
    endloop
  endfacet
  facet normal 0.442293 0.896871 -0
    outer loop
      vertex -38.2683 -92.388 7.5
      vertex -50 -86.6025 9
      vertex -38.2683 -92.388 9
    endloop
  endfacet
  facet normal 0.442293 0.896871 0
    outer loop
      vertex -50 -86.6025 9
      vertex -38.2683 -92.388 7.5
      vertex -50 -86.6025 7.5
    endloop
  endfacet
  facet normal 0.896871 0.442293 0
    outer loop
      vertex -86.6025 -50 9
      vertex -92.388 -38.2683 7.5
      vertex -92.388 -38.2683 9
    endloop
  endfacet
  facet normal 0.896871 0.442293 0
    outer loop
      vertex -92.388 -38.2683 7.5
      vertex -86.6025 -50 9
      vertex -86.6025 -50 7.5
    endloop
  endfacet
  facet normal 0.555571 0.831469 -0
    outer loop
      vertex -50 -86.6025 7.5
      vertex -60.8761 -79.3353 9
      vertex -50 -86.6025 9
    endloop
  endfacet
  facet normal 0.555571 0.831469 0
    outer loop
      vertex -60.8761 -79.3353 9
      vertex -50 -86.6025 7.5
      vertex -60.8761 -79.3353 7.5
    endloop
  endfacet
  facet normal 0.980784 0.195098 0
    outer loop
      vertex -97.95 -19.0575 9
      vertex -99.1445 -13.0526 7.5
      vertex -99.1445 -13.0526 9
    endloop
  endfacet
  facet normal 0.98079 0.195066 7.89626e-05
    outer loop
      vertex -96.5926 -25.8819 7.5
      vertex -97.95 -19.0575 9
      vertex -97.35 -22.0743 9
    endloop
  endfacet
  facet normal 0.980784 0.195096 -0
    outer loop
      vertex -96.5926 -25.8819 7.5
      vertex -97.35 -22.0743 9
      vertex -96.5926 -25.8819 9
    endloop
  endfacet
  facet normal 0.980785 0.19509 -3.53979e-05
    outer loop
      vertex -97.95 -19.0575 9
      vertex -96.5926 -25.8819 7.5
      vertex -99.1445 -13.0526 7.5
    endloop
  endfacet
  facet normal 0.751844 0.659341 0
    outer loop
      vertex -70.7107 -70.7107 9
      vertex -79.3353 -60.8761 7.5
      vertex -79.3353 -60.8761 9
    endloop
  endfacet
  facet normal 0.751844 0.659341 0
    outer loop
      vertex -79.3353 -60.8761 7.5
      vertex -70.7107 -70.7107 9
      vertex -70.7107 -70.7107 7.5
    endloop
  endfacet
  facet normal -0.321461 -0.946923 0
    outer loop
      vertex -43.2432 -104.398 0
      vertex -40 -105.499 1.5
      vertex -43.2432 -104.398 1.5
    endloop
  endfacet
  facet normal -0.321461 -0.946923 -0
    outer loop
      vertex -40 -105.499 1.5
      vertex -43.2432 -104.398 0
      vertex -40 -105.499 0
    endloop
  endfacet
  facet normal -0.751844 -0.659341 0
    outer loop
      vertex -79.9031 -79.9031 0
      vertex -89.6489 -68.79 1.5
      vertex -89.6489 -68.79 0
    endloop
  endfacet
  facet normal -0.751844 -0.659341 0
    outer loop
      vertex -89.6489 -68.79 1.5
      vertex -79.9031 -79.9031 0
      vertex -79.9031 -79.9031 1.5
    endloop
  endfacet
  facet normal -0.831467 -0.555574 0
    outer loop
      vertex -89.6489 -68.79 0
      vertex -97.8609 -56.5 1.5
      vertex -97.8609 -56.5 0
    endloop
  endfacet
  facet normal -0.831467 -0.555574 0
    outer loop
      vertex -97.8609 -56.5 1.5
      vertex -89.6489 -68.79 0
      vertex -89.6489 -68.79 1.5
    endloop
  endfacet
  facet normal -0.997859 -0.0654015 0
    outer loop
      vertex -112.033 -14.7495 0
      vertex -112.672 -5 1.5
      vertex -112.672 -5 0
    endloop
  endfacet
  facet normal -0.997859 -0.0654015 0
    outer loop
      vertex -112.672 -5 1.5
      vertex -112.033 -14.7495 0
      vertex -112.033 -14.7495 1.5
    endloop
  endfacet
  facet normal -0.946914 -0.321488 0
    outer loop
      vertex -104.398 -43.2432 0
      vertex -109.15 -29.2466 1.5
      vertex -109.15 -29.2466 0
    endloop
  endfacet
  facet normal -0.946914 -0.321488 0
    outer loop
      vertex -109.15 -29.2466 1.5
      vertex -104.398 -43.2432 0
      vertex -104.398 -43.2432 1.5
    endloop
  endfacet
  facet normal -0.659341 -0.751844 0
    outer loop
      vertex -79.9031 -79.9031 0
      vertex -68.79 -89.6489 1.5
      vertex -79.9031 -79.9031 1.5
    endloop
  endfacet
  facet normal -0.659341 -0.751844 -0
    outer loop
      vertex -68.79 -89.6489 1.5
      vertex -79.9031 -79.9031 0
      vertex -68.79 -89.6489 0
    endloop
  endfacet
  facet normal -0.442265 -0.896884 0
    outer loop
      vertex -56.5 -97.8609 0
      vertex -43.2432 -104.398 1.5
      vertex -56.5 -97.8609 1.5
    endloop
  endfacet
  facet normal -0.442265 -0.896884 -0
    outer loop
      vertex -43.2432 -104.398 1.5
      vertex -56.5 -97.8609 0
      vertex -43.2432 -104.398 0
    endloop
  endfacet
  facet normal -0.896884 -0.442265 0
    outer loop
      vertex -97.8609 -56.5 0
      vertex -104.398 -43.2432 1.5
      vertex -104.398 -43.2432 0
    endloop
  endfacet
  facet normal -0.896884 -0.442265 0
    outer loop
      vertex -104.398 -43.2432 1.5
      vertex -97.8609 -56.5 0
      vertex -97.8609 -56.5 1.5
    endloop
  endfacet
  facet normal -0.555574 -0.831467 0
    outer loop
      vertex -68.79 -89.6489 0
      vertex -56.5 -97.8609 1.5
      vertex -68.79 -89.6489 1.5
    endloop
  endfacet
  facet normal -0.555574 -0.831467 -0
    outer loop
      vertex -56.5 -97.8609 1.5
      vertex -68.79 -89.6489 0
      vertex -56.5 -97.8609 0
    endloop
  endfacet
  facet normal -0.980794 -0.195048 0
    outer loop
      vertex -109.15 -29.2466 0
      vertex -112.033 -14.7495 1.5
      vertex -112.033 -14.7495 0
    endloop
  endfacet
  facet normal -0.980794 -0.195048 0
    outer loop
      vertex -112.033 -14.7495 1.5
      vertex -109.15 -29.2466 0
      vertex -109.15 -29.2466 1.5
    endloop
  endfacet
  facet normal 0 0 1
    outer loop
      vertex -43.2432 -104.398 1.5
      vertex -40 -102.338 1.5
      vertex -42.0952 -101.627 1.5
    endloop
  endfacet
  facet normal 0 0 1
    outer loop
      vertex -40 -102.338 1.5
      vertex -43.2432 -104.398 1.5
      vertex -40 -105.499 1.5
    endloop
  endfacet
  facet normal 0 0 1
    outer loop
      vertex -55 -95.2628 1.5
      vertex -43.2432 -104.398 1.5
      vertex -42.0952 -101.627 1.5
    endloop
  endfacet
  facet normal 0 0 1
    outer loop
      vertex -55 -95.2628 1.5
      vertex -56.5 -97.8609 1.5
      vertex -43.2432 -104.398 1.5
    endloop
  endfacet
  facet normal 0 0 1
    outer loop
      vertex -66.9638 -87.2689 1.5
      vertex -56.5 -97.8609 1.5
      vertex -55 -95.2628 1.5
    endloop
  endfacet
  facet normal 0 0 1
    outer loop
      vertex -66.9638 -87.2689 1.5
      vertex -68.79 -89.6489 1.5
      vertex -56.5 -97.8609 1.5
    endloop
  endfacet
  facet normal 0 0 1
    outer loop
      vertex -77.7817 -77.7817 1.5
      vertex -68.79 -89.6489 1.5
      vertex -66.9638 -87.2689 1.5
    endloop
  endfacet
  facet normal 0 0 1
    outer loop
      vertex -77.7817 -77.7817 1.5
      vertex -79.9031 -79.9031 1.5
      vertex -68.79 -89.6489 1.5
    endloop
  endfacet
  facet normal 0 0 1
    outer loop
      vertex -87.2689 -66.9638 1.5
      vertex -79.9031 -79.9031 1.5
      vertex -77.7817 -77.7817 1.5
    endloop
  endfacet
  facet normal 0 0 1
    outer loop
      vertex -87.2689 -66.9638 1.5
      vertex -89.6489 -68.79 1.5
      vertex -79.9031 -79.9031 1.5
    endloop
  endfacet
  facet normal 0 0 1
    outer loop
      vertex -95.2628 -55 1.5
      vertex -89.6489 -68.79 1.5
      vertex -87.2689 -66.9638 1.5
    endloop
  endfacet
  facet normal 0 0 1
    outer loop
      vertex -95.2628 -55 1.5
      vertex -97.8609 -56.5 1.5
      vertex -89.6489 -68.79 1.5
    endloop
  endfacet
  facet normal 0 0 1
    outer loop
      vertex -101.627 -42.0952 1.5
      vertex -97.8609 -56.5 1.5
      vertex -95.2628 -55 1.5
    endloop
  endfacet
  facet normal 0 0 1
    outer loop
      vertex -101.627 -42.0952 1.5
      vertex -104.398 -43.2432 1.5
      vertex -97.8609 -56.5 1.5
    endloop
  endfacet
  facet normal 0 0 1
    outer loop
      vertex -106.252 -28.4701 1.5
      vertex -104.398 -43.2432 1.5
      vertex -101.627 -42.0952 1.5
    endloop
  endfacet
  facet normal 0 0 1
    outer loop
      vertex -109.15 -29.2466 1.5
      vertex -106.252 -28.4701 1.5
      vertex -109.059 -14.3579 1.5
    endloop
  endfacet
  facet normal 0 0 1
    outer loop
      vertex -106.252 -28.4701 1.5
      vertex -109.15 -29.2466 1.5
      vertex -104.398 -43.2432 1.5
    endloop
  endfacet
  facet normal 0 0 1
    outer loop
      vertex -112.033 -14.7495 1.5
      vertex -109.059 -14.3579 1.5
      vertex -109.672 -5 1.5
    endloop
  endfacet
  facet normal 0 0 1
    outer loop
      vertex -109.059 -14.3579 1.5
      vertex -112.033 -14.7495 1.5
      vertex -109.15 -29.2466 1.5
    endloop
  endfacet
  facet normal 0 -0 1
    outer loop
      vertex -112.033 -14.7495 1.5
      vertex -109.672 -5 1.5
      vertex -112.672 -5 1.5
    endloop
  endfacet
  facet normal 1 -0 0
    outer loop
      vertex -40 -105.499 1.5
      vertex -40 -102.338 0
      vertex -40 -102.338 1.5
    endloop
  endfacet
  facet normal 1 0 0
    outer loop
      vertex -40 -102.338 0
      vertex -40 -105.499 1.5
      vertex -40 -105.499 0
    endloop
  endfacet
  facet normal 1 0 0
    outer loop
      vertex -37 -92.8185 9
      vertex -37 -101.776 7.5
      vertex -37 -92.8185 7.5
    endloop
  endfacet
  facet normal 1 -0 0
    outer loop
      vertex -37 -103.356 9
      vertex -37 -101.776 7.5
      vertex -37 -92.8185 9
    endloop
  endfacet
  facet normal 1 0 0
    outer loop
      vertex -37 -103.356 0
      vertex -37 -101.776 7.5
      vertex -37 -103.356 9
    endloop
  endfacet
  facet normal 1 0 0
    outer loop
      vertex -37 -101.776 7.5
      vertex -37 -103.356 0
      vertex -37 -101.776 0
    endloop
  endfacet
  facet normal 0 1 0
    outer loop
      vertex -108.172 -5 7.5
      vertex -99.6723 -5 9
      vertex -99.6723 -5 7.5
    endloop
  endfacet
  facet normal 0 1 0
    outer loop
      vertex -99.6723 -5 9
      vertex -108.172 -5 7.5
      vertex -109.672 -5 9
    endloop
  endfacet
  facet normal 0 1 0
    outer loop
      vertex -108.172 -5 7.5
      vertex -109.672 -5 1.5
      vertex -109.672 -5 9
    endloop
  endfacet
  facet normal 0 1 -0
    outer loop
      vertex -108.172 -5 0
      vertex -109.672 -5 1.5
      vertex -108.172 -5 7.5
    endloop
  endfacet
  facet normal 0 1 0
    outer loop
      vertex -112.672 -5 0
      vertex -109.672 -5 1.5
      vertex -108.172 -5 0
    endloop
  endfacet
  facet normal 0 1 0
    outer loop
      vertex -109.672 -5 1.5
      vertex -112.672 -5 0
      vertex -112.672 -5 1.5
    endloop
  endfacet
  facet normal -0.913545 -0.406738 0
    outer loop
      vertex -87.1762 -17.5446 11
      vertex -88.3964 -14.804 19
      vertex -88.3964 -14.804 11
    endloop
  endfacet
  facet normal -0.913546 -0.406736 -0
    outer loop
      vertex -71.7202 -52.2594 11
      vertex -87.1762 -17.5446 11
      vertex -71.7202 -52.2594 9
    endloop
  endfacet
  facet normal -0.913546 -0.406736 -9.38682e-07
    outer loop
      vertex -87.1762 -17.5446 11
      vertex -71.7202 -52.2594 11
      vertex -88.3964 -14.804 19
    endloop
  endfacet
  facet normal -0.913545 -0.406738 -0
    outer loop
      vertex -70.5 -55 19
      vertex -71.7202 -52.2594 11
      vertex -70.5 -55 11
    endloop
  endfacet
  facet normal -0.913546 -0.406736 8.10682e-07
    outer loop
      vertex -71.7202 -52.2594 11
      vertex -70.5 -55 19
      vertex -88.3964 -14.804 19
    endloop
  endfacet
  facet normal -0.913546 -0.406736 0
    outer loop
      vertex -87.1762 -17.5446 9
      vertex -71.7202 -52.2594 9
      vertex -87.1762 -17.5446 11
    endloop
  endfacet
  facet normal 0 0 1
    outer loop
      vertex -88.3964 -14.804 11
      vertex -102.706 -24.4592 11
      vertex -87.1762 -17.5446 11
    endloop
  endfacet
  facet normal 0 -0 1
    outer loop
      vertex -102.706 -24.4592 11
      vertex -88.3964 -14.804 11
      vertex -106.667 -22.9387 11
    endloop
  endfacet
  facet normal 0 0 1
    outer loop
      vertex -87.2505 -59.1739 11
      vertex -70.5 -55 11
      vertex -71.7202 -52.2594 11
    endloop
  endfacet
  facet normal -0 0 1
    outer loop
      vertex -87.2505 -59.1739 11
      vertex -88.7709 -63.1347 11
      vertex -70.5 -55 11
    endloop
  endfacet
  facet normal 0 0 1
    outer loop
      vertex -102.706 -24.4592 11
      vertex -88.7709 -63.1347 11
      vertex -87.2505 -59.1739 11
    endloop
  endfacet
  facet normal 0 0 1
    outer loop
      vertex -88.7709 -63.1347 11
      vertex -102.706 -24.4592 11
      vertex -106.667 -22.9387 11
    endloop
  endfacet
  facet normal -0.913548 -0.406731 0
    outer loop
      vertex -88.7709 -63.1347 9
      vertex -106.667 -22.9387 11
      vertex -106.667 -22.9387 9
    endloop
  endfacet
  facet normal -0.913548 -0.406731 0
    outer loop
      vertex -106.667 -22.9387 11
      vertex -88.7709 -63.1347 9
      vertex -88.7709 -63.1347 11
    endloop
  endfacet
  facet normal -0.406746 0.913541 0
    outer loop
      vertex -86.5693 -13.9905 19
      vertex -88.3964 -14.804 11
      vertex -88.3964 -14.804 19
    endloop
  endfacet
  facet normal -0.406746 0.913541 0
    outer loop
      vertex -86.5693 -13.9905 9
      vertex -88.3964 -14.804 11
      vertex -86.5693 -13.9905 19
    endloop
  endfacet
  facet normal -0.406736 0.913546 1.13885e-05
    outer loop
      vertex -97.95 -19.0575 9
      vertex -88.3964 -14.804 11
      vertex -86.5693 -13.9905 9
    endloop
  endfacet
  facet normal -0.406741 0.913544 4.18211e-05
    outer loop
      vertex -88.3964 -14.804 11
      vertex -97.95 -19.0575 9
      vertex -106.667 -22.9387 11
    endloop
  endfacet
  facet normal -0.406749 0.91354 0
    outer loop
      vertex -106.667 -22.9387 11
      vertex -97.95 -19.0575 9
      vertex -106.667 -22.9387 9
    endloop
  endfacet
  facet normal 0.406733 -0.913547 0
    outer loop
      vertex -80.3356 -59.3791 9
      vertex -88.7709 -63.1347 11
      vertex -88.7709 -63.1347 9
    endloop
  endfacet
  facet normal 0.406746 -0.913541 0
    outer loop
      vertex -70.5 -55 11
      vertex -68.6729 -54.1865 19
      vertex -70.5 -55 19
    endloop
  endfacet
  facet normal 0.406735 -0.913546 1.10718e-05
    outer loop
      vertex -88.7709 -63.1347 11
      vertex -80.3356 -59.3791 9
      vertex -70.5 -55 11
    endloop
  endfacet
  facet normal 0.406746 -0.913541 0
    outer loop
      vertex -70.5 -55 11
      vertex -68.6729 -54.1865 9
      vertex -68.6729 -54.1865 19
    endloop
  endfacet
  facet normal 0.406739 -0.913545 -8.10681e-06
    outer loop
      vertex -68.6729 -54.1865 9
      vertex -70.5 -55 11
      vertex -80.3356 -59.3791 9
    endloop
  endfacet
  facet normal 0.91355 0.406726 0
    outer loop
      vertex -87.2505 -59.1739 11
      vertex -102.706 -24.4592 9
      vertex -102.706 -24.4592 11
    endloop
  endfacet
  facet normal 0.91355 0.406726 0
    outer loop
      vertex -102.706 -24.4592 9
      vertex -87.2505 -59.1739 11
      vertex -87.2505 -59.1739 9
    endloop
  endfacet
  facet normal 0.406773 -0.913529 0
    outer loop
      vertex -97.35 -22.0743 9
      vertex -102.706 -24.4592 11
      vertex -102.706 -24.4592 9
    endloop
  endfacet
  facet normal 0.406751 -0.913539 -7.12493e-05
    outer loop
      vertex -102.706 -24.4592 11
      vertex -97.35 -22.0743 9
      vertex -87.1762 -17.5446 11
    endloop
  endfacet
  facet normal 0.406739 -0.913544 0
    outer loop
      vertex -87.1762 -17.5446 11
      vertex -97.35 -22.0743 9
      vertex -87.1762 -17.5446 9
    endloop
  endfacet
  facet normal -0.40673 0.913549 0
    outer loop
      vertex -82.0268 -56.8481 9
      vertex -71.7202 -52.2594 11
      vertex -71.7202 -52.2594 9
    endloop
  endfacet
  facet normal -0.406735 0.913546 3.22967e-05
    outer loop
      vertex -71.7202 -52.2594 11
      vertex -82.0268 -56.8481 9
      vertex -87.2505 -59.1739 11
    endloop
  endfacet
  facet normal -0.406745 0.913542 0
    outer loop
      vertex -87.2505 -59.1739 11
      vertex -82.0268 -56.8481 9
      vertex -87.2505 -59.1739 9
    endloop
  endfacet
  facet normal 0.913546 0.406735 0
    outer loop
      vertex -86.5693 -13.9905 19
      vertex -78.4346 -32.2614 10.8
      vertex -86.5693 -13.9905 9
    endloop
  endfacet
  facet normal 0.913541 0.406746 -2.84619e-05
    outer loop
      vertex -86.5693 -13.9905 19
      vertex -76.8076 -35.9156 10.8
      vertex -78.4346 -32.2614 10.8
    endloop
  endfacet
  facet normal 0.913546 0.406736 2.58747e-06
    outer loop
      vertex -68.6729 -54.1865 19
      vertex -76.8076 -35.9156 10.8
      vertex -86.5693 -13.9905 19
    endloop
  endfacet
  facet normal 0.913546 0.406735 -0
    outer loop
      vertex -68.6729 -54.1865 9
      vertex -76.8076 -35.9156 10.8
      vertex -68.6729 -54.1865 19
    endloop
  endfacet
  facet normal 0.913546 0.406735 0
    outer loop
      vertex -76.8076 -35.9156 10.8
      vertex -68.6729 -54.1865 9
      vertex -76.8076 -35.9156 9
    endloop
  endfacet
  facet normal 0.913546 0.406735 0
    outer loop
      vertex -86.5693 -13.9905 9
      vertex -78.4346 -32.2614 10.8
      vertex -78.4346 -32.2614 9
    endloop
  endfacet
  facet normal 0 0 1
    outer loop
      vertex -86.5693 -13.9905 19
      vertex -70.5 -55 19
      vertex -68.6729 -54.1865 19
    endloop
  endfacet
  facet normal 0 0 1
    outer loop
      vertex -70.5 -55 19
      vertex -86.5693 -13.9905 19
      vertex -88.3964 -14.804 19
    endloop
  endfacet
  facet normal 0.913551 0.406725 0
    outer loop
      vertex -63.1045 -29.8146 10.8
      vertex -64.7314 -26.1604 9
      vertex -64.7314 -26.1604 10.8
    endloop
  endfacet
  facet normal 0.913551 0.406725 0
    outer loop
      vertex -64.7314 -26.1604 9
      vertex -63.1045 -29.8146 10.8
      vertex -63.1045 -29.8146 9
    endloop
  endfacet
  facet normal 0 0 1
    outer loop
      vertex -64.7314 -26.1604 10.8
      vertex -76.8076 -35.9156 10.8
      vertex -63.1045 -29.8146 10.8
    endloop
  endfacet
  facet normal 0 -0 1
    outer loop
      vertex -76.8076 -35.9156 10.8
      vertex -64.7314 -26.1604 10.8
      vertex -78.4346 -32.2614 10.8
    endloop
  endfacet
  facet normal -0.406733 0.913547 0
    outer loop
      vertex -64.7314 -26.1604 9
      vertex -78.4346 -32.2614 10.8
      vertex -64.7314 -26.1604 10.8
    endloop
  endfacet
  facet normal -0.406733 0.913547 0
    outer loop
      vertex -78.4346 -32.2614 10.8
      vertex -64.7314 -26.1604 9
      vertex -78.4346 -32.2614 9
    endloop
  endfacet
  facet normal 0.406736 -0.913546 0
    outer loop
      vertex -76.8076 -35.9156 9
      vertex -63.1045 -29.8146 10.8
      vertex -76.8076 -35.9156 10.8
    endloop
  endfacet
  facet normal 0.406736 -0.913546 0
    outer loop
      vertex -63.1045 -29.8146 10.8
      vertex -76.8076 -35.9156 9
      vertex -63.1045 -29.8146 9
    endloop
  endfacet
endsolid OpenSCAD_Model
